<svg id="svg" version="1.1" xmlns="http://www.w3.org/2000/svg" xmlns:xlink="http://www.w3.org/1999/xlink" width="400" height="461.1764705882353" viewBox="0, 0, 400,461.1764705882353"><g id="svgg"><path id="path0" d="M162.300 0.282 C 162.795 0.378,163.605 0.378,164.100 0.282 C 164.595 0.187,164.190 0.109,163.200 0.109 C 162.210 0.109,161.805 0.187,162.300 0.282 M188.300 0.282 C 188.795 0.378,189.605 0.378,190.100 0.282 C 190.595 0.187,190.190 0.109,189.200 0.109 C 188.210 0.109,187.805 0.187,188.300 0.282 M156.100 0.676 C 156.485 0.776,157.115 0.776,157.500 0.676 C 157.885 0.575,157.570 0.493,156.800 0.493 C 156.030 0.493,155.715 0.575,156.100 0.676 M207.800 2.000 C 207.936 2.220,208.307 2.400,208.624 2.400 C 208.941 2.400,209.200 2.220,209.200 2.000 C 209.200 1.780,208.829 1.600,208.376 1.600 C 207.923 1.600,207.664 1.780,207.800 2.000 M141.600 2.400 C 141.600 2.620,141.870 2.800,142.200 2.800 C 142.530 2.800,142.800 2.620,142.800 2.400 C 142.800 2.180,142.530 2.000,142.200 2.000 C 141.870 2.000,141.600 2.180,141.600 2.400 M210.800 2.400 C 210.800 2.620,211.160 2.800,211.600 2.800 C 212.040 2.800,212.400 2.620,212.400 2.400 C 212.400 2.180,212.040 2.000,211.600 2.000 C 211.160 2.000,210.800 2.180,210.800 2.400 M213.800 2.800 C 213.664 3.020,213.923 3.200,214.376 3.200 C 214.829 3.200,215.200 3.020,215.200 2.800 C 215.200 2.580,214.941 2.400,214.624 2.400 C 214.307 2.400,213.936 2.580,213.800 2.800 M126.800 5.200 C 126.800 5.420,127.070 5.600,127.400 5.600 C 127.730 5.600,128.000 5.420,128.000 5.200 C 128.000 4.980,127.730 4.800,127.400 4.800 C 127.070 4.800,126.800 4.980,126.800 5.200 M226.000 5.200 C 226.000 5.420,226.270 5.600,226.600 5.600 C 226.930 5.600,227.200 5.420,227.200 5.200 C 227.200 4.980,226.930 4.800,226.600 4.800 C 226.270 4.800,226.000 4.980,226.000 5.200 M116.000 8.000 C 116.000 8.220,116.270 8.400,116.600 8.400 C 116.930 8.400,117.200 8.220,117.200 8.000 C 117.200 7.780,116.930 7.600,116.600 7.600 C 116.270 7.600,116.000 7.780,116.000 8.000 M237.200 8.000 C 237.200 8.220,237.470 8.400,237.800 8.400 C 238.130 8.400,238.400 8.220,238.400 8.000 C 238.400 7.780,238.130 7.600,237.800 7.600 C 237.470 7.600,237.200 7.780,237.200 8.000 M94.812 15.184 C 94.488 15.389,94.378 15.701,94.566 15.878 C 94.755 16.055,94.990 15.974,95.089 15.698 C 95.188 15.421,95.421 15.289,95.607 15.404 C 95.793 15.519,96.058 15.430,96.196 15.207 C 96.509 14.700,95.601 14.685,94.812 15.184 M92.413 16.291 C 91.889 16.882,91.903 16.923,92.546 16.676 C 92.942 16.524,93.431 16.400,93.633 16.400 C 93.835 16.400,94.000 16.220,94.000 16.000 C 94.000 15.383,93.067 15.555,92.413 16.291 M264.400 17.553 C 264.400 17.748,264.760 18.001,265.200 18.116 C 266.145 18.363,266.286 17.795,265.367 17.443 C 264.528 17.121,264.400 17.135,264.400 17.553 M86.812 18.384 C 86.488 18.589,86.316 18.849,86.429 18.962 C 86.739 19.272,88.400 18.759,88.400 18.353 C 88.400 17.895,87.560 17.911,86.812 18.384 M81.300 20.888 C 80.495 21.276,80.052 22.000,80.620 22.000 C 80.990 22.000,83.200 20.792,83.200 20.590 C 83.200 20.277,82.260 20.425,81.300 20.888 M271.600 20.824 C 271.600 21.057,271.780 21.136,272.000 21.000 C 272.220 20.864,272.400 20.922,272.400 21.130 C 272.400 21.337,272.760 21.601,273.200 21.716 C 274.344 22.015,274.189 21.415,272.981 20.864 C 271.729 20.294,271.600 20.290,271.600 20.824 M78.500 22.488 C 78.005 22.727,77.600 23.079,77.600 23.270 C 77.600 23.546,78.822 22.952,79.967 22.121 C 80.366 21.831,79.320 22.093,78.500 22.488 M275.600 22.593 C 275.600 22.700,276.494 23.240,277.588 23.794 C 278.955 24.486,279.507 24.623,279.357 24.232 C 279.091 23.539,275.600 22.017,275.600 22.593 M75.929 23.714 C 75.638 23.997,74.330 24.687,73.022 25.247 C 71.715 25.807,70.575 26.476,70.489 26.733 C 70.403 26.990,71.875 26.435,73.759 25.500 C 75.644 24.565,77.189 23.665,77.193 23.500 C 77.204 23.030,76.511 23.148,75.929 23.714 M282.800 26.326 C 282.800 26.739,285.628 28.105,285.907 27.827 C 286.021 27.712,285.774 27.490,285.357 27.332 C 284.941 27.174,284.362 26.810,284.071 26.522 C 283.478 25.936,282.800 25.831,282.800 26.326 M67.143 28.360 C 66.342 28.761,65.262 29.494,64.743 29.989 L 63.800 30.889 65.600 29.990 C 67.502 29.039,69.551 27.589,68.954 27.616 C 68.759 27.625,67.944 27.960,67.143 28.360 M288.000 29.124 C 288.000 29.339,288.285 29.624,288.633 29.757 C 289.023 29.907,289.206 29.818,289.108 29.525 C 288.909 28.927,288.000 28.598,288.000 29.124 M62.177 31.367 C 61.750 31.679,61.491 32.024,61.601 32.133 C 61.710 32.242,62.225 31.987,62.744 31.566 C 63.831 30.685,63.343 30.515,62.177 31.367 M292.875 32.026 C 292.954 32.261,293.733 32.846,294.607 33.326 C 295.482 33.807,296.436 34.425,296.727 34.700 C 297.366 35.302,297.600 35.331,297.600 34.807 C 297.600 34.590,296.700 33.957,295.600 33.400 C 294.500 32.843,293.600 32.210,293.600 31.993 C 293.600 31.777,293.405 31.600,293.167 31.600 C 292.928 31.600,292.797 31.792,292.875 32.026 M57.500 34.032 C 56.419 34.661,56.670 35.242,57.800 34.727 C 58.350 34.477,58.800 34.120,58.800 33.936 C 58.800 33.496,58.365 33.528,57.500 34.032 M54.800 36.000 C 54.250 36.430,53.980 36.782,54.200 36.782 C 54.420 36.782,55.050 36.430,55.600 36.000 C 56.150 35.570,56.420 35.218,56.200 35.218 C 55.980 35.218,55.350 35.570,54.800 36.000 M298.800 35.967 C 299.763 36.752,300.400 37.008,300.400 36.610 C 300.400 36.506,299.815 36.135,299.100 35.786 L 297.800 35.152 298.800 35.967 M52.000 37.868 L 51.000 38.923 52.300 38.251 C 53.015 37.882,53.600 37.404,53.600 37.190 C 53.600 36.531,53.046 36.766,52.000 37.868 M165.400 38.400 L 163.800 38.686 165.724 38.743 C 166.917 38.778,167.553 38.648,167.400 38.400 C 167.264 38.180,167.118 38.026,167.076 38.057 C 167.034 38.088,166.280 38.242,165.400 38.400 M190.552 38.477 C 190.442 38.655,191.083 38.800,191.976 38.800 C 192.869 38.800,193.600 38.730,193.600 38.644 C 193.600 38.323,190.744 38.168,190.552 38.477 M49.275 39.616 C 48.251 40.570,48.163 40.866,49.000 40.545 C 49.330 40.418,49.600 40.154,49.600 39.957 C 49.600 39.761,49.870 39.600,50.200 39.600 C 50.530 39.600,50.800 39.420,50.800 39.200 C 50.800 38.572,50.228 38.728,49.275 39.616 M197.300 39.076 C 197.685 39.176,198.315 39.176,198.700 39.076 C 199.085 38.975,198.770 38.893,198.000 38.893 C 197.230 38.893,196.915 38.975,197.300 39.076 M303.600 39.200 C 303.600 39.420,303.870 39.600,304.200 39.600 C 304.530 39.600,304.800 39.761,304.800 39.957 C 304.800 40.154,305.070 40.418,305.400 40.545 C 306.237 40.866,306.149 40.570,305.125 39.616 C 304.172 38.728,303.600 38.572,303.600 39.200 M148.400 40.000 C 148.400 40.220,148.760 40.400,149.200 40.400 C 149.640 40.400,150.000 40.220,150.000 40.000 C 150.000 39.780,149.640 39.600,149.200 39.600 C 148.760 39.600,148.400 39.780,148.400 40.000 M204.400 40.000 C 204.400 40.220,204.760 40.400,205.200 40.400 C 205.640 40.400,206.000 40.220,206.000 40.000 C 206.000 39.780,205.640 39.600,205.200 39.600 C 204.760 39.600,204.400 39.780,204.400 40.000 M145.200 40.400 C 145.200 40.620,145.470 40.800,145.800 40.800 C 146.130 40.800,146.400 40.620,146.400 40.400 C 146.400 40.180,146.130 40.000,145.800 40.000 C 145.470 40.000,145.200 40.180,145.200 40.400 M207.200 40.400 C 207.200 40.620,207.560 40.800,208.000 40.800 C 208.440 40.800,208.800 40.620,208.800 40.400 C 208.800 40.180,208.440 40.000,208.000 40.000 C 207.560 40.000,207.200 40.180,207.200 40.400 M307.020 41.532 C 308.626 42.934,311.145 44.800,311.430 44.800 C 311.858 44.800,309.758 42.855,308.298 41.900 C 307.204 41.184,306.335 40.934,307.020 41.532 M45.200 42.400 C 44.883 42.596,44.756 42.889,44.918 43.052 C 45.081 43.214,45.423 43.137,45.680 42.880 C 46.284 42.276,45.947 41.938,45.200 42.400 M220.800 43.200 C 220.800 43.420,221.070 43.600,221.400 43.600 C 221.730 43.600,222.000 43.420,222.000 43.200 C 222.000 42.980,221.730 42.800,221.400 42.800 C 221.070 42.800,220.800 42.980,220.800 43.200 M41.467 45.067 C 40.981 45.553,41.190 45.979,41.800 45.745 C 42.130 45.618,42.400 45.354,42.400 45.157 C 42.400 44.738,41.849 44.684,41.467 45.067 M312.000 45.186 C 312.000 45.398,312.374 45.772,312.830 46.016 C 313.590 46.423,313.623 46.390,313.216 45.630 C 312.759 44.777,312.000 44.499,312.000 45.186 M38.200 47.832 C 37.320 48.619,36.111 49.554,35.513 49.910 C 34.914 50.266,34.329 50.807,34.212 51.112 C 33.912 51.895,34.465 51.612,36.386 50.000 C 39.968 46.994,40.586 46.413,40.200 46.407 C 39.980 46.403,39.080 47.045,38.200 47.832 M314.400 47.186 C 314.400 47.564,315.665 48.400,316.236 48.400 C 316.394 48.400,316.198 48.040,315.800 47.600 C 315.024 46.743,314.400 46.558,314.400 47.186 M236.200 47.600 C 236.640 47.789,237.270 47.944,237.600 47.944 C 237.978 47.944,237.904 47.817,237.400 47.600 C 236.960 47.411,236.330 47.256,236.000 47.256 C 235.622 47.256,235.696 47.383,236.200 47.600 M114.576 48.587 C 114.149 48.910,114.010 49.180,114.267 49.187 C 115.027 49.208,116.000 48.742,116.000 48.357 C 116.000 47.833,115.458 47.921,114.576 48.587 M238.400 48.353 C 238.400 48.548,238.805 48.815,239.300 48.948 C 240.584 49.292,240.882 49.257,240.596 48.793 C 240.458 48.570,240.177 48.491,239.972 48.617 C 239.768 48.744,239.600 48.657,239.600 48.424 C 239.600 48.191,239.330 48.000,239.000 48.000 C 238.670 48.000,238.400 48.159,238.400 48.353 M317.200 49.400 C 317.474 49.730,317.878 50.000,318.098 50.000 C 318.321 50.000,318.278 49.735,318.000 49.400 C 317.726 49.070,317.322 48.800,317.102 48.800 C 316.879 48.800,316.922 49.065,317.200 49.400 M319.200 50.735 C 319.200 51.085,320.210 52.056,321.100 52.563 C 321.951 53.047,321.654 52.581,320.400 51.463 C 319.740 50.875,319.200 50.547,319.200 50.735 M31.858 52.981 C 31.276 53.520,30.800 54.067,30.800 54.195 C 30.800 54.582,32.158 53.731,32.966 52.837 C 34.021 51.672,33.148 51.785,31.858 52.981 M248.800 52.333 C 249.130 52.536,249.850 52.824,250.400 52.971 C 251.095 53.157,251.217 53.125,250.800 52.867 C 250.470 52.664,249.750 52.376,249.200 52.229 C 248.505 52.043,248.383 52.075,248.800 52.333 M101.465 53.847 C 100.840 54.186,100.429 54.563,100.552 54.685 C 100.857 54.991,103.200 53.988,103.200 53.551 C 103.200 53.062,102.782 53.133,101.465 53.847 M251.600 53.557 C 251.600 53.942,252.573 54.408,253.333 54.387 C 253.590 54.380,253.451 54.110,253.024 53.787 C 252.142 53.121,251.600 53.033,251.600 53.557 M322.400 53.573 C 322.400 53.778,322.985 54.360,323.700 54.866 L 325.000 55.786 324.000 54.515 C 322.992 53.234,322.400 52.885,322.400 53.573 M28.041 56.358 C 27.156 57.261,26.560 57.997,26.716 57.994 C 27.286 57.982,30.192 55.266,29.925 54.996 C 29.774 54.842,28.926 55.455,28.041 56.358 M257.600 56.400 C 258.642 57.304,259.200 57.420,259.200 56.733 C 259.200 56.477,259.089 56.378,258.952 56.514 C 258.816 56.650,258.443 56.500,258.124 56.181 C 257.804 55.861,257.348 55.600,257.110 55.600 C 256.872 55.600,257.093 55.960,257.600 56.400 M96.400 56.424 C 96.400 56.657,96.220 56.736,96.000 56.600 C 95.780 56.464,95.600 56.543,95.600 56.776 C 95.600 57.267,95.707 57.287,96.567 56.957 C 97.265 56.689,97.433 56.000,96.800 56.000 C 96.580 56.000,96.400 56.191,96.400 56.424 M93.800 57.627 C 92.455 58.489,92.639 58.638,94.181 57.936 C 94.742 57.680,95.200 57.320,95.200 57.136 C 95.200 56.718,95.243 56.703,93.800 57.627 M328.575 59.402 C 330.101 60.822,331.424 61.910,331.515 61.818 C 331.760 61.573,326.715 56.798,326.222 56.810 C 325.990 56.815,327.049 57.981,328.575 59.402 M19.651 64.250 C 16.490 67.432,14.002 70.135,14.123 70.256 C 14.350 70.483,26.000 59.099,26.000 58.651 C 26.000 57.987,24.980 58.887,19.651 64.250 M91.212 58.784 C 90.888 58.989,90.727 59.261,90.854 59.388 C 91.169 59.703,92.400 59.201,92.400 58.757 C 92.400 58.301,91.960 58.311,91.212 58.784 M262.400 58.757 C 262.400 59.201,263.631 59.703,263.946 59.388 C 264.073 59.261,263.912 58.989,263.588 58.784 C 262.840 58.311,262.400 58.301,262.400 58.757 M265.776 60.613 C 266.204 60.936,266.789 61.200,267.076 61.200 C 267.364 61.200,267.600 61.359,267.600 61.553 C 267.600 61.747,268.635 62.396,269.900 62.994 C 271.165 63.593,272.290 64.209,272.400 64.364 C 272.719 64.814,274.545 66.000,274.918 66.000 C 275.573 66.000,274.138 64.892,271.183 63.117 C 266.860 60.519,263.747 59.077,265.776 60.613 M86.500 61.288 C 86.005 61.527,85.600 61.885,85.600 62.085 C 85.600 62.284,85.420 62.336,85.200 62.200 C 84.980 62.064,84.800 62.143,84.800 62.376 C 84.800 62.909,84.931 62.906,86.159 62.346 C 86.891 62.012,88.091 60.640,87.487 60.827 C 87.439 60.842,86.995 61.049,86.500 61.288 M83.024 63.413 C 82.596 63.736,82.427 64.000,82.647 64.000 C 82.867 64.000,83.396 63.736,83.824 63.413 C 84.251 63.090,84.420 62.825,84.200 62.825 C 83.980 62.825,83.451 63.090,83.024 63.413 M80.757 64.777 C 80.230 65.215,79.991 65.579,80.224 65.587 C 80.844 65.606,82.240 64.507,81.956 64.223 C 81.823 64.089,81.283 64.339,80.757 64.777 M78.300 66.229 C 77.695 66.557,77.200 67.000,77.200 67.213 C 77.200 67.860,77.751 67.638,78.742 66.593 C 79.828 65.448,79.793 65.419,78.300 66.229 M275.810 66.483 C 275.921 66.772,276.845 67.450,277.863 67.990 C 278.882 68.530,279.918 69.175,280.166 69.424 C 280.415 69.672,281.424 70.379,282.409 70.996 C 283.394 71.612,284.344 72.360,284.520 72.658 C 284.883 73.273,285.600 73.388,285.600 72.833 C 285.600 72.631,284.925 72.055,284.100 71.554 C 283.275 71.052,282.510 70.534,282.400 70.401 C 282.214 70.177,277.205 66.866,276.105 66.240 C 275.793 66.063,275.684 66.153,275.810 66.483 M337.800 68.360 C 339.799 70.760,342.800 73.716,342.800 73.286 C 342.800 72.825,339.950 69.820,337.975 68.200 L 337.000 67.400 337.800 68.360 M73.076 69.781 C 72.736 70.121,72.264 70.400,72.029 70.400 C 71.793 70.400,71.600 70.580,71.600 70.800 C 71.600 71.390,72.078 71.276,73.194 70.418 C 73.741 69.998,74.077 69.544,73.942 69.408 C 73.806 69.273,73.417 69.440,73.076 69.781 M70.000 72.000 C 69.560 72.440,69.100 72.800,68.979 72.800 C 68.590 72.800,66.000 74.987,66.000 75.316 C 66.000 75.489,66.368 75.288,66.819 74.869 C 67.269 74.449,68.232 73.786,68.959 73.394 C 69.686 73.002,70.489 72.349,70.744 71.941 C 71.350 70.970,71.003 70.997,70.000 72.000 M11.042 73.272 C 10.186 74.122,9.601 74.934,9.742 75.076 C 9.884 75.217,10.696 74.579,11.547 73.657 C 13.515 71.526,13.112 71.218,11.042 73.272 M287.000 74.194 C 287.440 74.507,288.114 75.072,288.498 75.450 C 288.882 75.828,289.299 76.034,289.425 75.909 C 289.683 75.650,287.119 73.593,286.562 73.613 C 286.363 73.620,286.560 73.881,287.000 74.194 M343.600 74.638 C 343.600 75.245,346.746 78.188,347.059 77.874 C 347.210 77.723,347.256 77.555,347.161 77.500 C 347.065 77.445,346.225 76.688,345.294 75.819 C 344.362 74.949,343.600 74.418,343.600 74.638 M8.006 76.782 C 7.459 77.202,7.132 77.666,7.279 77.813 C 7.640 78.173,8.305 77.724,8.812 76.778 C 9.324 75.822,9.255 75.822,8.006 76.782 M64.000 76.600 C 63.722 76.935,63.679 77.200,63.902 77.200 C 64.122 77.200,64.526 76.930,64.800 76.600 C 65.078 76.265,65.121 76.000,64.898 76.000 C 64.678 76.000,64.274 76.270,64.000 76.600 M290.630 77.149 C 291.054 77.561,291.546 77.813,291.724 77.710 C 291.902 77.607,291.722 77.276,291.324 76.974 C 290.248 76.159,289.743 76.286,290.630 77.149 M61.599 78.602 C 61.083 79.151,60.844 79.600,61.068 79.600 C 61.579 79.600,62.998 78.065,62.732 77.799 C 62.625 77.691,62.114 78.052,61.599 78.602 M348.000 79.600 C 348.470 80.260,349.056 80.800,349.302 80.800 C 349.548 80.800,349.232 80.260,348.600 79.600 C 347.968 78.940,347.382 78.400,347.298 78.400 C 347.214 78.400,347.530 78.940,348.000 79.600 M6.000 79.400 C 5.717 79.741,5.576 80.109,5.686 80.219 C 5.796 80.329,6.117 80.141,6.400 79.800 C 6.683 79.459,6.824 79.091,6.714 78.981 C 6.604 78.871,6.283 79.059,6.000 79.400 M58.375 81.192 C 57.619 81.839,57.180 82.374,57.400 82.382 C 57.973 82.402,60.244 80.516,59.975 80.244 C 59.851 80.119,59.131 80.546,58.375 81.192 M294.800 80.359 C 294.800 80.763,296.904 82.400,297.424 82.400 C 297.847 82.400,296.353 80.803,295.504 80.349 C 295.058 80.110,294.800 80.113,294.800 80.359 M4.017 81.969 C 3.790 82.392,3.357 82.985,3.054 83.288 C 2.238 84.105,1.104 86.437,1.386 86.720 C 1.521 86.855,1.736 86.568,1.863 86.083 C 1.989 85.597,2.211 85.200,2.356 85.200 C 2.500 85.200,2.957 84.570,3.372 83.800 C 3.787 83.030,4.258 82.400,4.420 82.400 C 4.582 82.400,4.818 82.130,4.945 81.800 C 5.281 80.924,4.500 81.066,4.017 81.969 M350.000 81.755 C 350.000 82.185,352.561 85.567,352.900 85.584 C 353.501 85.616,353.179 84.794,352.400 84.307 C 351.960 84.032,351.600 83.609,351.600 83.366 C 351.600 83.123,351.240 82.598,350.800 82.200 C 350.360 81.802,350.000 81.601,350.000 81.755 M54.800 84.400 C 53.810 85.244,53.121 86.054,53.267 86.200 C 53.414 86.347,54.283 85.717,55.200 84.800 C 57.347 82.653,57.117 82.424,54.800 84.400 M298.000 82.935 C 298.000 83.342,301.289 86.444,301.498 86.235 C 301.769 85.964,298.841 82.800,298.319 82.800 C 298.143 82.800,298.000 82.861,298.000 82.935 M353.972 87.147 C 354.202 87.578,354.528 87.991,354.695 88.065 C 354.863 88.139,355.519 88.965,356.154 89.900 C 357.254 91.520,358.000 92.051,358.000 91.214 C 358.000 91.002,357.675 90.654,357.278 90.442 C 356.881 90.229,356.224 89.439,355.819 88.687 C 355.414 87.934,354.738 87.104,354.317 86.841 C 353.630 86.412,353.595 86.443,353.972 87.147 M49.739 88.984 C 48.672 89.965,47.980 90.770,48.200 90.772 C 48.614 90.777,50.588 89.073,51.549 87.881 C 52.527 86.668,51.724 87.157,49.739 88.984 M303.111 87.688 C 303.516 88.180,311.854 96.498,312.611 97.167 C 312.715 97.258,312.800 97.197,312.800 97.031 C 312.800 96.585,304.335 88.001,303.400 87.499 C 302.703 87.125,302.666 87.149,303.111 87.688 M42.453 95.775 C 40.563 97.631,39.103 99.233,39.208 99.336 C 39.314 99.438,41.020 97.919,43.000 95.961 C 44.980 94.003,46.440 92.401,46.244 92.400 C 46.049 92.400,44.342 93.919,42.453 95.775 M359.200 94.171 C 359.200 94.266,359.425 94.588,359.700 94.888 C 359.975 95.188,360.380 95.731,360.600 96.095 C 361.983 98.382,366.547 104.787,366.690 104.643 C 366.865 104.468,365.646 102.371,365.153 102.000 C 365.007 101.890,364.490 101.035,364.003 100.100 C 363.517 99.165,362.978 98.400,362.805 98.400 C 362.632 98.400,362.213 97.815,361.872 97.100 C 361.080 95.437,359.200 93.377,359.200 94.171 M0.093 96.000 C 0.093 96.770,0.175 97.085,0.276 96.700 C 0.376 96.315,0.376 95.685,0.276 95.300 C 0.175 94.915,0.093 95.230,0.093 96.000 M313.880 98.950 C 314.056 99.253,314.829 100.018,315.598 100.650 L 316.996 101.800 315.665 100.100 C 314.427 98.521,313.153 97.700,313.880 98.950 M34.480 103.256 C 33.315 104.377,32.459 105.393,32.580 105.513 C 32.793 105.726,36.800 101.833,36.800 101.412 C 36.800 101.049,36.657 101.163,34.480 103.256 M317.609 102.537 C 317.604 102.722,317.960 103.331,318.400 103.891 C 318.840 104.450,319.196 104.749,319.191 104.554 C 319.179 104.087,317.620 102.100,317.609 102.537 M3.650 105.693 C 4.392 106.680,5.596 107.917,6.324 108.443 C 7.052 108.970,7.907 109.638,8.224 109.929 C 8.541 110.219,8.800 110.282,8.800 110.068 C 8.800 109.854,8.285 109.346,7.654 108.939 C 7.024 108.533,5.739 107.300,4.799 106.200 C 2.630 103.664,1.868 103.328,3.650 105.693 M319.600 105.382 C 319.600 105.482,320.005 106.002,320.500 106.538 C 320.995 107.073,321.697 107.937,322.059 108.456 C 322.422 108.975,322.825 109.297,322.955 109.171 C 323.085 109.045,322.864 108.590,322.464 108.161 C 322.064 107.731,321.415 106.889,321.022 106.290 C 320.403 105.344,319.600 104.832,319.600 105.382 M367.233 106.100 C 367.505 106.705,367.880 107.200,368.064 107.200 C 368.599 107.200,368.460 106.831,367.569 105.883 L 366.737 105.000 367.233 106.100 M30.300 106.929 C 29.178 107.848,28.905 108.400,29.573 108.400 C 29.778 108.400,30.330 107.860,30.800 107.200 C 31.815 105.775,31.752 105.741,30.300 106.929 M368.400 107.750 C 368.400 108.089,370.580 111.819,370.910 112.045 C 371.107 112.179,371.228 112.359,371.179 112.445 C 371.130 112.530,371.474 113.230,371.944 114.000 C 372.413 114.770,372.798 115.258,372.799 115.084 C 372.801 114.641,371.155 111.443,370.800 111.200 C 370.639 111.090,370.120 110.235,369.646 109.300 C 368.905 107.839,368.400 107.211,368.400 107.750 M26.246 110.001 C 23.788 111.670,23.563 112.053,25.684 110.956 C 26.848 110.355,29.229 108.399,28.796 108.401 C 28.688 108.401,27.541 109.121,26.246 110.001 M126.400 109.567 C 126.400 109.768,126.567 109.993,126.770 110.067 C 127.269 110.246,134.033 116.850,136.921 119.978 C 138.198 121.360,139.349 122.384,139.480 122.254 C 139.721 122.013,127.138 109.200,126.660 109.200 C 126.517 109.200,126.400 109.365,126.400 109.567 M238.400 109.936 C 238.400 110.120,237.927 110.487,237.348 110.751 C 236.770 111.014,236.386 111.319,236.494 111.427 C 236.603 111.536,237.255 111.304,237.943 110.912 C 239.180 110.209,239.577 109.600,238.800 109.600 C 238.580 109.600,238.400 109.751,238.400 109.936 M239.600 109.782 C 239.600 109.882,240.050 110.628,240.600 111.438 C 241.786 113.185,241.944 112.769,240.804 110.900 C 240.094 109.735,239.600 109.276,239.600 109.782 M323.600 110.302 C 323.600 110.522,323.870 110.926,324.200 111.200 C 324.535 111.478,324.800 111.521,324.800 111.298 C 324.800 111.078,324.530 110.674,324.200 110.400 C 323.865 110.122,323.600 110.079,323.600 110.302 M124.979 111.166 C 125.103 111.367,124.979 111.612,124.702 111.711 C 124.426 111.810,124.345 112.045,124.522 112.234 C 124.699 112.422,125.011 112.312,125.216 111.988 C 125.708 111.209,125.695 110.800,125.176 110.800 C 124.943 110.800,124.855 110.965,124.979 111.166 M324.800 112.158 C 324.800 112.432,327.109 114.800,327.378 114.800 C 327.519 114.800,327.131 114.170,326.517 113.400 C 325.547 112.184,324.800 111.644,324.800 112.158 M17.600 112.800 C 17.600 113.020,18.050 113.200,18.600 113.200 C 19.150 113.200,19.600 113.020,19.600 112.800 C 19.600 112.580,19.150 112.400,18.600 112.400 C 18.050 112.400,17.600 112.580,17.600 112.800 M231.035 116.404 C 229.074 118.383,227.578 120.111,227.711 120.244 C 227.843 120.377,229.413 118.981,231.198 117.143 C 235.162 113.060,235.388 112.799,234.949 112.803 C 234.757 112.804,232.996 114.425,231.035 116.404 M327.200 115.586 C 327.200 115.798,327.574 116.172,328.030 116.416 C 328.790 116.823,328.823 116.790,328.416 116.030 C 327.959 115.177,327.200 114.899,327.200 115.586 M122.064 117.019 C 121.485 118.290,121.476 118.800,122.033 118.800 C 122.272 118.800,122.392 118.577,122.301 118.304 C 122.210 118.031,122.375 117.568,122.668 117.275 C 123.267 116.676,123.371 116.000,122.864 116.000 C 122.680 116.000,122.320 116.458,122.064 117.019 M329.209 118.000 C 329.955 119.471,332.109 122.425,332.297 122.236 C 332.496 122.038,330.485 118.905,329.451 117.800 C 328.709 117.008,328.706 117.010,329.209 118.000 M374.000 117.590 C 374.000 117.805,374.359 118.570,374.799 119.290 C 375.752 120.854,375.821 120.627,374.995 118.649 C 374.404 117.235,374.000 116.805,374.000 117.590 M375.600 121.171 C 375.600 121.376,375.861 121.804,376.181 122.124 C 376.500 122.443,376.650 122.816,376.514 122.952 C 376.378 123.089,376.477 123.200,376.733 123.200 C 377.313 123.200,377.313 123.085,376.736 121.819 C 376.282 120.822,375.600 120.434,375.600 121.171 M225.066 122.833 C 223.620 124.443,223.289 124.995,223.924 124.733 C 224.518 124.489,227.300 121.200,226.912 121.200 C 226.703 121.200,225.872 121.935,225.066 122.833 M120.100 122.223 C 119.520 122.853,119.441 123.600,119.953 123.600 C 120.261 123.600,120.910 121.965,120.684 121.758 C 120.638 121.715,120.375 121.925,120.100 122.223 M332.400 123.180 C 332.400 123.389,332.647 123.704,332.948 123.880 C 333.249 124.056,333.908 125.010,334.411 126.000 C 334.942 127.045,335.404 127.571,335.512 127.254 C 335.614 126.953,335.520 126.593,335.302 126.454 C 335.085 126.314,334.520 125.435,334.046 124.500 C 333.256 122.942,332.400 122.255,332.400 123.180 M140.973 124.503 C 141.368 125.106,141.866 125.600,142.079 125.600 C 142.718 125.600,142.221 124.712,141.205 124.037 L 140.254 123.406 140.973 124.503 M377.228 123.800 C 377.228 124.020,377.486 124.650,377.800 125.200 C 378.114 125.750,378.372 126.020,378.372 125.800 C 378.372 125.580,378.114 124.950,377.800 124.400 C 377.486 123.850,377.228 123.580,377.228 123.800 M222.188 126.288 C 221.509 127.337,220.775 128.227,219.067 130.074 C 218.663 130.510,218.440 130.974,218.571 131.104 C 218.825 131.358,218.879 131.299,221.556 127.845 C 222.522 126.598,223.221 125.488,223.110 125.377 C 222.999 125.266,222.584 125.676,222.188 126.288 M143.419 127.373 C 143.789 127.938,144.251 128.400,144.446 128.400 C 145.136 128.400,144.786 127.683,143.773 127.019 L 142.747 126.347 143.419 127.373 M378.400 126.620 C 378.400 127.153,379.681 129.252,379.883 129.050 C 380.190 128.743,379.189 126.400,378.751 126.400 C 378.558 126.400,378.400 126.499,378.400 126.620 M336.463 129.417 C 336.923 130.196,337.372 130.761,337.462 130.671 C 337.686 130.447,336.269 128.006,335.913 128.003 C 335.756 128.001,336.003 128.638,336.463 129.417 M145.008 129.200 C 145.181 129.530,145.959 130.651,146.737 131.691 C 148.238 133.699,148.965 134.034,147.732 132.151 C 146.875 130.841,144.547 128.319,145.008 129.200 M337.600 131.381 C 337.600 131.867,338.566 133.600,338.837 133.600 C 339.007 133.600,339.265 133.974,339.410 134.430 C 339.554 134.887,339.755 135.178,339.855 135.079 C 340.113 134.820,338.307 131.200,337.920 131.200 C 337.744 131.200,337.600 131.282,337.600 131.381 M380.806 131.900 C 380.817 132.447,381.553 133.381,381.788 133.146 C 382.103 132.831,381.601 131.600,381.157 131.600 C 380.961 131.600,380.803 131.735,380.806 131.900 M217.046 132.986 C 216.691 133.528,216.400 134.076,216.400 134.203 C 216.400 134.330,216.040 134.820,215.600 135.292 C 214.727 136.230,214.575 136.800,215.200 136.800 C 215.420 136.800,215.600 136.612,215.600 136.383 C 215.600 136.154,215.783 135.749,216.006 135.483 C 217.014 134.282,218.343 132.000,218.034 132.000 C 217.846 132.000,217.401 132.444,217.046 132.986 M249.256 132.800 C 249.256 133.130,249.411 133.760,249.600 134.200 C 249.817 134.704,249.944 134.778,249.944 134.400 C 249.944 134.070,249.789 133.440,249.600 133.000 C 249.383 132.496,249.256 132.422,249.256 132.800 M149.363 135.529 C 150.108 136.970,151.364 138.107,150.939 136.957 C 150.498 135.761,149.542 134.400,149.144 134.400 C 148.943 134.400,149.042 134.908,149.363 135.529 M250.198 136.199 C 250.491 137.513,250.691 137.842,251.007 137.526 C 251.121 137.412,250.925 136.797,250.572 136.160 L 249.931 135.000 250.198 136.199 M340.400 136.739 C 340.400 136.925,340.760 137.493,341.200 138.000 C 342.111 139.050,342.205 138.887,341.536 137.419 C 341.091 136.443,340.400 136.029,340.400 136.739 M114.224 138.647 C 113.981 139.615,114.175 140.359,114.567 139.966 C 114.989 139.544,115.251 137.600,114.887 137.600 C 114.667 137.600,114.368 138.071,114.224 138.647 M152.918 140.952 C 153.403 141.695,153.858 142.252,153.929 142.189 C 154.174 141.973,152.780 139.600,152.408 139.600 C 152.204 139.600,152.434 140.208,152.918 140.952 M211.750 141.858 C 211.415 142.660,210.884 143.573,210.570 143.887 C 209.898 144.559,209.826 145.200,210.424 145.200 C 210.657 145.200,210.736 145.020,210.600 144.800 C 210.464 144.580,210.498 144.400,210.676 144.400 C 210.854 144.399,211.505 143.499,212.123 142.400 C 212.741 141.300,213.047 140.400,212.803 140.400 C 212.559 140.400,212.085 141.056,211.750 141.858 M343.206 142.300 C 343.217 142.847,343.953 143.781,344.188 143.546 C 344.503 143.231,344.001 142.000,343.557 142.000 C 343.361 142.000,343.203 142.135,343.206 142.300 M154.473 143.800 C 154.920 144.781,155.600 145.161,155.600 144.429 C 155.600 144.063,154.498 142.800,154.180 142.800 C 154.090 142.800,154.222 143.250,154.473 143.800 M252.800 145.176 C 252.800 145.629,252.980 146.000,253.200 146.000 C 253.420 146.000,253.600 145.741,253.600 145.424 C 253.600 145.107,253.420 144.736,253.200 144.600 C 252.980 144.464,252.800 144.723,252.800 145.176 M155.911 146.374 C 156.282 147.020,156.640 147.493,156.707 147.426 C 156.924 147.209,155.883 145.200,155.554 145.200 C 155.380 145.200,155.540 145.728,155.911 146.374 M386.400 145.724 C 386.400 146.614,387.571 147.972,387.587 147.100 C 387.594 146.715,387.426 146.400,387.213 146.400 C 386.999 146.400,386.929 146.130,387.055 145.800 C 387.182 145.470,387.086 145.200,386.843 145.200 C 386.599 145.200,386.400 145.436,386.400 145.724 M345.200 146.140 C 345.200 146.755,346.153 148.800,346.439 148.800 C 346.935 148.800,346.896 148.546,346.190 147.180 C 345.663 146.162,345.200 145.675,345.200 146.140 M253.200 147.000 C 253.200 147.330,253.380 147.600,253.600 147.600 C 253.820 147.600,254.000 147.330,254.000 147.000 C 254.000 146.670,253.820 146.400,253.600 146.400 C 253.380 146.400,253.200 146.670,253.200 147.000 M156.800 148.220 C 156.800 148.753,158.081 150.852,158.283 150.650 C 158.590 150.343,157.589 148.000,157.151 148.000 C 156.958 148.000,156.800 148.099,156.800 148.220 M208.100 149.023 C 207.511 149.663,207.462 150.000,207.957 150.000 C 208.298 150.000,208.937 148.796,208.709 148.583 C 208.649 148.527,208.375 148.725,208.100 149.023 M111.200 149.800 C 111.200 150.130,111.380 150.400,111.600 150.400 C 111.820 150.400,112.000 150.130,112.000 149.800 C 112.000 149.470,111.820 149.200,111.600 149.200 C 111.380 149.200,111.200 149.470,111.200 149.800 M206.864 151.419 C 206.292 152.675,206.268 153.329,206.807 152.996 C 207.030 152.858,207.109 152.577,206.983 152.372 C 206.856 152.168,206.922 152.000,207.130 152.000 C 207.337 152.000,207.601 151.640,207.716 151.200 C 208.015 150.056,207.415 150.211,206.864 151.419 M348.013 152.667 C 347.992 153.427,348.458 154.400,348.843 154.400 C 349.367 154.400,349.279 153.858,348.613 152.976 C 348.290 152.549,348.020 152.410,348.013 152.667 M159.322 154.133 C 159.475 154.536,159.600 155.031,159.600 155.233 C 159.600 155.435,159.780 155.600,160.000 155.600 C 160.617 155.600,160.474 154.817,159.722 154.071 C 159.088 153.443,159.062 153.446,159.322 154.133 M348.800 155.229 C 348.800 155.464,349.105 155.959,349.478 156.329 C 350.112 156.957,350.138 156.954,349.878 156.267 C 349.725 155.864,349.600 155.369,349.600 155.167 C 349.600 154.965,349.420 154.800,349.200 154.800 C 348.980 154.800,348.800 154.993,348.800 155.229 M204.400 157.800 C 204.400 158.130,204.580 158.400,204.800 158.400 C 205.020 158.400,205.200 158.130,205.200 157.800 C 205.200 157.470,205.020 157.200,204.800 157.200 C 204.580 157.200,204.400 157.470,204.400 157.800 M255.600 157.776 C 255.600 158.093,255.780 158.464,256.000 158.600 C 256.220 158.736,256.400 158.477,256.400 158.024 C 256.400 157.571,256.220 157.200,256.000 157.200 C 255.780 157.200,255.600 157.459,255.600 157.776 M161.612 159.726 C 161.588 160.378,162.440 161.600,162.914 161.594 C 163.249 161.590,163.265 161.496,162.966 161.294 C 162.727 161.132,162.327 160.640,162.078 160.200 C 161.828 159.760,161.619 159.547,161.612 159.726 M176.800 159.900 C 176.800 160.065,180.040 160.200,184.000 160.200 C 187.960 160.200,191.200 160.065,191.200 159.900 C 191.200 159.735,187.960 159.600,184.000 159.600 C 180.040 159.600,176.800 159.735,176.800 159.900 M170.000 160.400 C 170.000 160.620,170.540 160.800,171.200 160.800 C 171.860 160.800,172.400 160.620,172.400 160.400 C 172.400 160.180,171.860 160.000,171.200 160.000 C 170.540 160.000,170.000 160.180,170.000 160.400 M195.200 160.400 C 195.200 160.620,195.639 160.800,196.176 160.800 C 196.713 160.800,197.264 160.620,197.400 160.400 C 197.544 160.167,197.137 160.000,196.424 160.000 C 195.751 160.000,195.200 160.180,195.200 160.400 M256.178 160.435 C 256.031 160.674,256.110 161.070,256.355 161.315 C 256.682 161.642,256.800 161.526,256.800 160.880 C 256.800 159.914,256.592 159.765,256.178 160.435 M166.400 160.800 C 166.400 161.020,166.760 161.200,167.200 161.200 C 167.640 161.200,168.000 161.020,168.000 160.800 C 168.000 160.580,167.640 160.400,167.200 160.400 C 166.760 160.400,166.400 160.580,166.400 160.800 M199.200 160.800 C 199.200 161.020,199.560 161.200,200.000 161.200 C 200.440 161.200,200.800 161.020,200.800 160.800 C 200.800 160.580,200.440 160.400,200.000 160.400 C 199.560 160.400,199.200 160.580,199.200 160.800 M108.800 162.400 C 108.800 162.840,108.980 163.200,109.200 163.200 C 109.420 163.200,109.600 162.840,109.600 162.400 C 109.600 161.960,109.420 161.600,109.200 161.600 C 108.980 161.600,108.800 161.960,108.800 162.400 M108.400 166.576 C 108.400 167.139,108.580 167.600,108.800 167.600 C 109.020 167.600,109.200 167.251,109.200 166.824 C 109.200 166.397,109.020 165.936,108.800 165.800 C 108.573 165.660,108.400 165.996,108.400 166.576 M257.293 168.800 C 257.293 169.570,257.375 169.885,257.476 169.500 C 257.576 169.115,257.576 168.485,257.476 168.100 C 257.375 167.715,257.293 168.030,257.293 168.800 M108.040 172.620 L 108.080 174.600 108.449 173.029 C 108.690 172.001,108.676 171.316,108.409 171.049 C 108.130 170.770,108.013 171.272,108.040 172.620 M394.400 172.600 C 394.400 172.930,394.580 173.200,394.800 173.200 C 395.020 173.200,395.200 172.930,395.200 172.600 C 395.200 172.270,395.020 172.000,394.800 172.000 C 394.580 172.000,394.400 172.270,394.400 172.600 M356.400 179.176 C 356.400 179.629,356.580 180.000,356.800 180.000 C 357.020 180.000,357.200 179.741,357.200 179.424 C 357.200 179.107,357.020 178.736,356.800 178.600 C 356.580 178.464,356.400 178.723,356.400 179.176 M356.800 181.000 C 356.800 181.330,356.980 181.600,357.200 181.600 C 357.420 181.600,357.600 181.330,357.600 181.000 C 357.600 180.670,357.420 180.400,357.200 180.400 C 356.980 180.400,356.800 180.670,356.800 181.000 M396.800 183.776 C 396.800 184.093,396.980 184.464,397.200 184.600 C 397.420 184.736,397.600 184.477,397.600 184.024 C 397.600 183.571,397.420 183.200,397.200 183.200 C 396.980 183.200,396.800 183.459,396.800 183.776 M397.200 186.576 C 397.200 186.893,397.380 187.264,397.600 187.400 C 397.820 187.536,398.000 187.277,398.000 186.824 C 398.000 186.371,397.820 186.000,397.600 186.000 C 397.380 186.000,397.200 186.259,397.200 186.576 M257.320 189.600 C 257.320 190.810,257.395 191.305,257.487 190.700 C 257.578 190.095,257.578 189.105,257.487 188.500 C 257.395 187.895,257.320 188.390,257.320 189.600 M397.778 189.635 C 397.631 189.874,397.710 190.270,397.955 190.515 C 398.282 190.842,398.400 190.726,398.400 190.080 C 398.400 189.114,398.192 188.965,397.778 189.635 M108.040 193.300 C 108.018 194.125,108.180 194.800,108.400 194.800 C 108.858 194.800,108.858 194.230,108.400 192.800 C 108.114 191.908,108.075 191.961,108.040 193.300 M359.200 192.776 C 359.200 193.229,359.380 193.600,359.600 193.600 C 359.820 193.600,360.000 193.341,360.000 193.024 C 360.000 192.707,359.820 192.336,359.600 192.200 C 359.380 192.064,359.200 192.323,359.200 192.776 M359.600 196.000 C 359.600 196.440,359.780 196.800,360.000 196.800 C 360.220 196.800,360.400 196.440,360.400 196.000 C 360.400 195.560,360.220 195.200,360.000 195.200 C 359.780 195.200,359.600 195.560,359.600 196.000 M108.400 197.400 C 108.400 197.730,108.580 198.000,108.800 198.000 C 109.020 198.000,109.200 197.730,109.200 197.400 C 109.200 197.070,109.020 196.800,108.800 196.800 C 108.580 196.800,108.400 197.070,108.400 197.400 M398.893 198.400 C 398.893 199.170,398.975 199.485,399.076 199.100 C 399.176 198.715,399.176 198.085,399.076 197.700 C 398.975 197.315,398.893 197.630,398.893 198.400 M256.713 201.100 C 256.600 202.805,256.637 205.280,256.795 206.600 C 257.025 208.520,257.094 207.899,257.141 203.500 C 257.207 197.387,257.026 196.377,256.713 201.100 M108.800 200.800 C 108.800 201.240,108.980 201.600,109.200 201.600 C 109.420 201.600,109.600 201.240,109.600 200.800 C 109.600 200.360,109.420 200.000,109.200 200.000 C 108.980 200.000,108.800 200.360,108.800 200.800 M399.301 204.200 C 399.305 205.080,399.387 205.393,399.483 204.895 C 399.579 204.398,399.575 203.678,399.475 203.295 C 399.375 202.913,399.296 203.320,399.301 204.200 M361.200 208.624 C 361.200 209.407,361.350 209.955,361.533 209.841 C 361.849 209.646,361.683 207.200,361.355 207.200 C 361.270 207.200,361.200 207.841,361.200 208.624 M108.800 208.200 C 108.800 208.530,108.980 208.800,109.200 208.800 C 109.420 208.800,109.600 208.530,109.600 208.200 C 109.600 207.870,109.420 207.600,109.200 207.600 C 108.980 207.600,108.800 207.870,108.800 208.200 M108.400 210.200 C 108.400 210.530,108.580 210.800,108.800 210.800 C 109.020 210.800,109.200 210.530,109.200 210.200 C 109.200 209.870,109.020 209.600,108.800 209.600 C 108.580 209.600,108.400 209.870,108.400 210.200 M399.737 214.200 C 399.739 215.960,399.809 216.630,399.893 215.689 C 399.978 214.749,399.977 213.309,399.891 212.489 C 399.805 211.670,399.736 212.440,399.737 214.200 M108.006 212.900 C 108.011 213.628,108.086 213.685,108.400 213.200 C 108.901 212.424,108.901 212.000,108.400 212.000 C 108.180 212.000,108.003 212.405,108.006 212.900 M257.309 215.200 C 257.309 216.190,257.387 216.595,257.482 216.100 C 257.578 215.605,257.578 214.795,257.482 214.300 C 257.387 213.805,257.309 214.210,257.309 215.200 M361.634 222.600 C 361.620 227.903,361.743 230.398,362.000 230.000 C 362.477 229.263,362.477 216.509,362.000 215.400 C 361.792 214.916,361.648 217.765,361.634 222.600 M107.754 221.200 C 107.754 223.950,107.818 225.075,107.896 223.700 C 107.974 222.325,107.974 220.075,107.896 218.700 C 107.818 217.325,107.754 218.450,107.754 221.200 M399.740 229.200 C 399.740 231.070,399.809 231.835,399.893 230.900 C 399.977 229.965,399.977 228.435,399.893 227.500 C 399.809 226.565,399.740 227.330,399.740 229.200 M108.012 229.780 C 108.003 230.641,108.120 230.840,108.441 230.519 C 108.758 230.202,108.761 229.868,108.454 229.339 C 108.077 228.691,108.023 228.746,108.012 229.780 M256.216 234.773 C 256.071 235.008,256.064 235.380,256.200 235.600 C 256.336 235.820,256.257 236.000,256.024 236.000 C 255.791 236.000,255.600 236.270,255.600 236.600 C 255.600 237.683,256.331 237.227,256.606 235.971 C 256.887 234.693,256.673 234.035,256.216 234.773 M361.200 236.576 C 361.200 237.359,361.270 238.000,361.355 238.000 C 361.683 238.000,361.849 235.554,361.533 235.359 C 361.350 235.245,361.200 235.793,361.200 236.576 M399.293 239.600 C 399.293 240.370,399.375 240.685,399.476 240.300 C 399.576 239.915,399.576 239.285,399.476 238.900 C 399.375 238.515,399.293 238.830,399.293 239.600 M111.206 241.900 C 111.217 242.447,111.953 243.381,112.188 243.146 C 112.503 242.831,112.001 241.600,111.557 241.600 C 111.361 241.600,111.203 241.735,111.206 241.900 M252.782 243.900 C 251.947 246.066,251.895 246.296,252.443 245.400 C 252.712 244.960,253.058 244.510,253.212 244.400 C 253.669 244.074,254.084 242.400,253.707 242.400 C 253.517 242.400,253.100 243.075,252.782 243.900 M398.893 245.600 C 398.893 246.370,398.975 246.685,399.076 246.300 C 399.176 245.915,399.176 245.285,399.076 244.900 C 398.975 244.515,398.893 244.830,398.893 245.600 M113.600 246.626 C 113.600 246.751,113.786 247.201,114.014 247.626 C 114.629 248.776,115.263 248.575,114.727 247.400 C 114.324 246.515,113.600 246.018,113.600 246.626 M250.873 247.400 C 250.337 248.575,250.971 248.776,251.586 247.626 C 252.088 246.689,252.106 246.400,251.664 246.400 C 251.480 246.400,251.123 246.850,250.873 247.400 M359.600 249.200 C 359.600 249.640,359.780 250.000,360.000 250.000 C 360.220 250.000,360.400 249.640,360.400 249.200 C 360.400 248.760,360.220 248.400,360.000 248.400 C 359.780 248.400,359.600 248.760,359.600 249.200 M249.453 250.100 L 248.733 251.400 249.558 250.400 C 250.289 249.513,250.614 248.800,250.286 248.800 C 250.224 248.800,249.849 249.385,249.453 250.100 M116.800 252.000 C 116.800 252.220,116.986 252.400,117.213 252.400 C 117.441 252.400,118.001 253.035,118.459 253.810 C 118.917 254.586,119.654 255.415,120.098 255.652 C 120.839 256.049,120.859 256.022,120.352 255.323 C 118.113 252.236,116.800 251.008,116.800 252.000 M247.784 252.027 C 247.639 252.261,247.616 252.549,247.733 252.667 C 248.020 252.953,248.800 252.448,248.800 251.976 C 248.800 251.465,248.109 251.499,247.784 252.027 M359.200 252.400 C 359.200 253.147,359.307 253.253,359.680 252.880 C 360.053 252.507,360.053 252.293,359.680 251.920 C 359.307 251.547,359.200 251.653,359.200 252.400 M245.161 255.636 C 243.012 258.121,242.568 259.128,244.476 257.190 C 245.856 255.787,247.460 253.600,247.107 253.600 C 247.006 253.600,246.130 254.516,245.161 255.636 M397.778 254.035 C 397.631 254.274,397.710 254.670,397.955 254.915 C 398.282 255.242,398.400 255.126,398.400 254.480 C 398.400 253.514,398.192 253.365,397.778 254.035 M121.200 257.030 C 121.200 257.157,123.495 259.499,126.300 262.235 C 133.812 269.561,138.800 273.289,138.800 271.576 C 138.800 271.343,138.620 271.264,138.400 271.400 C 138.180 271.536,138.000 271.490,138.000 271.298 C 138.000 271.105,137.400 270.662,136.667 270.312 C 134.680 269.365,130.727 265.995,125.898 261.132 C 121.825 257.031,121.200 256.485,121.200 257.030 M397.412 257.317 C 397.241 257.712,397.213 258.147,397.351 258.284 C 397.757 258.690,398.084 258.120,397.897 257.331 C 397.732 256.633,397.710 256.632,397.412 257.317 M396.800 260.800 C 396.800 261.240,396.980 261.600,397.200 261.600 C 397.420 261.600,397.600 261.240,397.600 260.800 C 397.600 260.360,397.420 260.000,397.200 260.000 C 396.980 260.000,396.800 260.360,396.800 260.800 M236.985 263.927 C 235.893 264.967,234.235 266.333,233.300 266.963 C 231.663 268.067,231.149 268.800,232.013 268.800 C 232.239 268.800,232.523 268.545,232.643 268.233 C 232.762 267.922,233.549 267.211,234.390 266.654 C 236.357 265.352,239.441 262.508,239.175 262.242 C 239.062 262.129,238.077 262.887,236.985 263.927 M356.800 264.200 C 356.800 264.530,356.980 264.800,357.200 264.800 C 357.420 264.800,357.600 264.530,357.600 264.200 C 357.600 263.870,357.420 263.600,357.200 263.600 C 356.980 263.600,356.800 263.870,356.800 264.200 M394.800 271.000 C 394.800 271.330,394.980 271.600,395.200 271.600 C 395.420 271.600,395.600 271.330,395.600 271.000 C 395.600 270.670,395.420 270.400,395.200 270.400 C 394.980 270.400,394.800 270.670,394.800 271.000 M226.200 271.831 C 225.320 272.356,224.420 272.855,224.200 272.938 C 223.980 273.022,223.926 273.227,224.081 273.393 C 224.235 273.559,224.625 273.432,224.947 273.110 C 225.269 272.789,226.087 272.295,226.766 272.014 C 227.445 271.733,228.000 271.345,228.000 271.151 C 228.000 270.725,228.141 270.672,226.200 271.831 M394.400 273.000 C 394.400 273.330,394.580 273.600,394.800 273.600 C 395.020 273.600,395.200 273.330,395.200 273.000 C 395.200 272.670,395.020 272.400,394.800 272.400 C 394.580 272.400,394.400 272.670,394.400 273.000 M354.400 273.400 C 354.400 273.730,354.580 274.000,354.800 274.000 C 355.020 274.000,355.200 273.730,355.200 273.400 C 355.200 273.070,355.020 272.800,354.800 272.800 C 354.580 272.800,354.400 273.070,354.400 273.400 M142.000 273.554 C 142.000 273.883,144.009 274.924,144.226 274.707 C 144.293 274.640,143.820 274.282,143.174 273.911 C 142.528 273.540,142.000 273.380,142.000 273.554 M222.600 273.852 C 222.160 274.197,221.296 274.662,220.680 274.886 C 220.063 275.109,219.643 275.377,219.746 275.480 C 220.055 275.788,223.600 274.080,223.600 273.622 C 223.600 273.088,223.565 273.096,222.600 273.852 M353.852 275.300 C 353.511 276.572,353.540 276.800,354.043 276.800 C 354.286 276.800,354.382 276.530,354.255 276.200 C 354.129 275.870,354.199 275.600,354.413 275.600 C 354.626 275.600,354.800 275.330,354.800 275.000 C 354.800 274.076,354.123 274.290,353.852 275.300 M145.500 275.288 C 145.995 275.527,146.400 275.875,146.400 276.061 C 146.400 276.248,146.580 276.400,146.800 276.400 C 147.562 276.400,147.195 275.726,146.181 275.264 C 144.898 274.680,144.283 274.701,145.500 275.288 M147.600 276.308 C 147.600 276.532,147.885 276.824,148.233 276.957 C 149.103 277.291,149.200 277.268,149.200 276.733 C 149.200 276.477,149.082 276.385,148.937 276.530 C 148.792 276.675,148.432 276.593,148.137 276.348 C 147.799 276.067,147.600 276.053,147.600 276.308 M217.100 276.303 C 216.715 276.389,216.400 276.625,216.400 276.829 C 216.400 277.298,216.834 277.293,217.588 276.816 C 218.307 276.361,218.050 276.092,217.100 276.303 M151.083 278.369 C 152.031 279.260,152.400 279.399,152.400 278.864 C 152.400 278.680,151.905 278.305,151.300 278.033 L 150.200 277.537 151.083 278.369 M212.800 278.600 C 212.395 279.088,212.415 279.200,212.908 279.200 C 213.242 279.200,213.618 278.930,213.745 278.600 C 213.871 278.270,213.823 278.000,213.636 278.000 C 213.450 278.000,213.074 278.270,212.800 278.600 M212.800 279.924 C 212.800 280.101,213.055 280.596,213.367 281.023 C 214.112 282.041,214.610 281.525,213.931 280.439 C 213.405 279.596,212.800 279.320,212.800 279.924 M150.315 283.400 C 149.834 284.390,149.300 285.200,149.128 285.200 C 148.957 285.200,148.449 285.920,148.000 286.800 C 147.551 287.680,147.028 288.400,146.839 288.400 C 146.649 288.400,146.396 288.770,146.278 289.223 C 145.937 290.526,146.770 289.933,147.726 288.191 C 148.207 287.316,148.699 286.510,148.821 286.400 C 149.023 286.217,151.010 283.290,151.740 282.100 C 151.912 281.820,151.858 281.600,151.618 281.600 C 151.383 281.600,150.796 282.410,150.315 283.400 M392.000 282.200 C 392.000 282.530,392.180 282.800,392.400 282.800 C 392.620 282.800,392.800 282.530,392.800 282.200 C 392.800 281.870,392.620 281.600,392.400 281.600 C 392.180 281.600,392.000 281.870,392.000 282.200 M214.425 282.200 C 214.425 282.420,214.690 282.949,215.013 283.376 C 215.336 283.804,215.600 283.973,215.600 283.753 C 215.600 283.533,215.336 283.004,215.013 282.576 C 214.690 282.149,214.425 281.980,214.425 282.200 M391.600 283.800 C 391.600 284.130,391.780 284.400,392.000 284.400 C 392.220 284.400,392.400 284.130,392.400 283.800 C 392.400 283.470,392.220 283.200,392.000 283.200 C 391.780 283.200,391.600 283.470,391.600 283.800 M216.460 285.595 C 216.946 286.252,217.415 286.718,217.504 286.630 C 217.749 286.385,216.359 284.400,215.942 284.400 C 215.741 284.400,215.974 284.938,216.460 285.595 M350.643 285.433 C 350.315 286.286,350.335 286.998,350.677 286.656 C 350.983 286.351,351.286 284.800,351.040 284.800 C 350.955 284.800,350.776 285.085,350.643 285.433 M218.223 288.300 C 218.635 289.015,219.114 289.600,219.286 289.600 C 219.806 289.600,219.652 289.296,218.536 288.121 L 217.473 287.000 218.223 288.300 M220.200 291.200 C 220.541 291.860,221.001 292.400,221.222 292.400 C 221.443 292.400,221.225 291.860,220.737 291.200 C 220.249 290.540,219.789 290.000,219.715 290.000 C 219.640 290.000,219.859 290.540,220.200 291.200 M144.986 291.700 L 144.352 293.000 145.167 292.000 C 145.952 291.037,146.208 290.400,145.810 290.400 C 145.706 290.400,145.335 290.985,144.986 291.700 M348.243 291.433 C 347.879 292.380,347.949 292.878,348.407 292.596 C 348.630 292.458,348.709 292.177,348.583 291.972 C 348.456 291.768,348.543 291.600,348.776 291.600 C 349.009 291.600,349.200 291.420,349.200 291.200 C 349.200 290.567,348.511 290.735,348.243 291.433 M221.200 292.938 C 221.200 293.014,221.650 293.599,222.200 294.238 C 223.326 295.547,223.534 295.282,222.554 293.786 C 222.012 292.959,221.200 292.450,221.200 292.938 M142.628 295.061 C 142.056 296.084,141.657 296.990,141.740 297.073 C 141.951 297.285,143.398 295.068,143.289 294.700 C 143.240 294.535,143.361 294.400,143.557 294.400 C 143.754 294.400,144.018 294.130,144.145 293.800 C 144.666 292.442,143.594 293.333,142.628 295.061 M223.463 296.220 C 223.586 296.539,223.846 296.800,224.043 296.800 C 224.239 296.800,224.355 297.002,224.300 297.250 C 224.245 297.498,224.429 297.784,224.708 297.886 C 225.109 298.033,225.119 297.859,224.754 297.058 C 224.260 295.974,223.073 295.204,223.463 296.220 M225.225 298.600 C 225.225 298.820,225.490 299.349,225.813 299.776 C 226.136 300.204,226.400 300.373,226.400 300.153 C 226.400 299.933,226.136 299.404,225.813 298.976 C 225.490 298.549,225.225 298.380,225.225 298.600 M344.990 299.230 C 344.612 300.422,344.927 300.515,345.467 299.371 C 345.719 298.837,345.774 298.400,345.589 298.400 C 345.405 298.400,345.135 298.774,344.990 299.230 M139.673 299.800 C 139.422 300.350,139.283 300.800,139.363 300.800 C 139.443 300.800,139.803 300.350,140.163 299.800 C 140.524 299.250,140.663 298.800,140.473 298.800 C 140.284 298.800,139.923 299.250,139.673 299.800 M386.400 299.567 C 386.400 299.769,386.275 300.264,386.122 300.667 C 385.862 301.354,385.888 301.357,386.522 300.729 C 387.274 299.983,387.417 299.200,386.800 299.200 C 386.580 299.200,386.400 299.365,386.400 299.567 M227.260 301.995 C 227.746 302.652,228.215 303.118,228.304 303.030 C 228.549 302.785,227.159 300.800,226.742 300.800 C 226.541 300.800,226.774 301.338,227.260 301.995 M137.096 303.600 C 136.312 304.920,135.790 305.998,135.936 305.995 C 136.294 305.988,138.195 303.076,138.087 302.700 C 138.039 302.535,138.161 302.400,138.357 302.400 C 138.554 302.400,138.818 302.130,138.945 301.800 C 139.509 300.328,138.392 301.416,137.096 303.600 M343.443 302.233 C 343.113 303.093,343.133 303.200,343.624 303.200 C 343.857 303.200,343.936 303.020,343.800 302.800 C 343.664 302.580,343.743 302.400,343.976 302.400 C 344.209 302.400,344.400 302.220,344.400 302.000 C 344.400 301.367,343.711 301.535,343.443 302.233 M384.933 303.829 C 384.681 304.363,384.626 304.800,384.811 304.800 C 385.158 304.800,385.781 303.247,385.532 302.999 C 385.455 302.922,385.185 303.295,384.933 303.829 M228.873 304.600 C 229.320 305.581,230.000 305.961,230.000 305.229 C 230.000 304.863,228.898 303.600,228.580 303.600 C 228.490 303.600,228.622 304.050,228.873 304.600 M342.449 304.652 C 341.783 306.114,342.074 306.195,342.889 304.774 C 343.260 304.128,343.420 303.600,343.246 303.600 C 343.071 303.600,342.713 304.073,342.449 304.652 M383.863 306.083 C 383.736 306.568,383.724 307.058,383.838 307.171 C 384.096 307.430,384.786 306.369,384.794 305.700 C 384.804 304.859,384.108 305.145,383.863 306.083 M230.081 306.200 C 230.498 307.391,231.793 309.600,232.074 309.600 C 232.253 309.600,232.400 309.870,232.400 310.200 C 232.400 310.530,232.580 310.800,232.800 310.800 C 233.425 310.800,233.273 310.230,232.400 309.292 C 231.960 308.820,231.596 308.291,231.591 308.117 C 231.586 307.943,231.213 307.350,230.762 306.800 C 230.310 306.250,230.004 305.980,230.081 306.200 M134.350 308.099 C 133.873 309.033,133.195 310.008,132.842 310.266 C 132.490 310.524,132.324 310.857,132.474 311.007 C 132.913 311.446,133.397 310.955,134.224 309.228 C 134.651 308.338,135.116 307.607,135.257 307.605 C 135.675 307.597,136.011 306.400,135.596 306.400 C 135.387 306.400,134.826 307.164,134.350 308.099 M341.300 307.023 C 340.711 307.663,340.662 308.000,341.157 308.000 C 341.498 308.000,342.137 306.796,341.909 306.583 C 341.849 306.527,341.575 306.725,341.300 307.023 M339.520 310.248 C 339.239 310.882,338.782 311.638,338.505 311.929 C 337.945 312.515,337.835 313.200,338.301 313.200 C 338.738 313.200,340.564 309.630,340.274 309.341 C 340.140 309.207,339.800 309.615,339.520 310.248 M381.582 311.634 C 381.067 312.596,381.456 313.273,382.016 312.388 C 382.408 311.768,382.529 310.800,382.214 310.800 C 382.112 310.800,381.827 311.175,381.582 311.634 M234.033 312.900 C 234.305 313.505,234.680 314.000,234.864 314.000 C 235.399 314.000,235.260 313.631,234.369 312.683 L 233.537 311.800 234.033 312.900 M380.643 313.833 C 380.267 314.811,380.349 314.908,381.000 314.257 C 381.680 313.577,381.767 313.200,381.243 313.200 C 381.046 313.200,380.776 313.485,380.643 313.833 M336.981 314.837 C 336.105 316.532,336.406 316.601,337.482 314.952 C 337.966 314.208,338.196 313.600,337.992 313.600 C 337.788 313.600,337.333 314.157,336.981 314.837 M235.225 314.600 C 235.225 314.820,235.490 315.349,235.813 315.776 C 236.136 316.204,236.400 316.373,236.400 316.153 C 236.400 315.933,236.136 315.404,235.813 314.976 C 235.490 314.549,235.225 314.380,235.225 314.600 M129.867 315.067 C 129.484 315.449,129.538 316.000,129.957 316.000 C 130.154 316.000,130.418 315.730,130.545 315.400 C 130.779 314.790,130.353 314.581,129.867 315.067 M378.588 318.188 C 378.026 319.459,377.647 320.581,377.747 320.680 C 377.846 320.779,378.046 320.487,378.190 320.030 C 378.335 319.574,378.586 319.200,378.747 319.200 C 379.142 319.200,380.134 316.400,379.842 316.109 C 379.715 315.981,379.150 316.917,378.588 318.188 M335.214 317.574 C 334.691 318.551,334.693 318.800,335.224 318.800 C 335.457 318.800,335.536 318.620,335.400 318.400 C 335.264 318.180,335.324 318.000,335.534 318.000 C 335.743 318.000,336.018 317.730,336.145 317.400 C 336.482 316.521,335.699 316.667,335.214 317.574 M128.260 318.038 C 127.866 318.499,127.647 318.981,127.775 319.109 C 128.015 319.348,129.164 318.038,129.187 317.500 C 129.207 317.034,129.034 317.134,128.260 318.038 M333.700 320.241 C 332.700 321.382,332.618 321.600,333.190 321.600 C 333.404 321.600,333.859 321.060,334.200 320.400 C 334.955 318.939,334.866 318.911,333.700 320.241 M238.489 320.200 C 239.099 321.955,240.151 324.000,240.443 324.000 C 240.990 324.000,240.868 323.325,240.200 322.657 C 239.870 322.327,239.600 321.899,239.600 321.705 C 239.600 321.511,239.319 321.004,238.975 320.576 C 238.631 320.149,238.412 319.980,238.489 320.200 M376.656 322.412 C 376.270 323.066,376.116 323.600,376.313 323.600 C 376.683 323.600,377.736 321.603,377.494 321.361 C 377.419 321.286,377.042 321.759,376.656 322.412 M125.810 322.770 C 125.665 323.226,125.378 323.600,125.173 323.600 C 124.968 323.600,124.800 323.780,124.800 324.000 C 124.800 324.220,124.951 324.400,125.136 324.400 C 125.528 324.400,126.515 322.382,126.251 322.118 C 126.153 322.020,125.954 322.313,125.810 322.770 M331.814 323.035 C 330.853 324.501,331.279 324.631,332.340 323.195 C 332.826 322.538,333.059 322.000,332.858 322.000 C 332.657 322.000,332.187 322.466,331.814 323.035 M374.840 325.807 C 374.313 326.801,373.990 327.724,374.124 327.857 C 374.257 327.991,374.664 327.357,375.027 326.450 C 375.390 325.542,375.847 324.800,376.043 324.800 C 376.240 324.800,376.400 324.620,376.400 324.400 C 376.400 323.510,375.746 324.100,374.840 325.807 M124.014 325.574 C 123.512 326.511,123.494 326.800,123.936 326.800 C 124.120 326.800,124.477 326.350,124.727 325.800 C 125.263 324.625,124.629 324.424,124.014 325.574 M329.846 325.786 C 329.096 326.931,329.049 327.200,329.600 327.200 C 329.820 327.200,330.000 326.930,330.000 326.600 C 330.000 326.270,330.161 326.000,330.357 326.000 C 330.554 326.000,330.818 325.730,330.945 325.400 C 331.313 324.440,330.553 324.707,329.846 325.786 M241.600 326.196 C 241.600 326.641,242.905 328.996,243.290 329.245 C 243.498 329.379,243.624 329.559,243.569 329.645 C 243.514 329.730,243.780 330.340,244.160 331.000 C 244.931 332.340,244.824 331.831,243.800 329.300 C 243.422 328.365,242.953 327.600,242.757 327.600 C 242.560 327.600,242.400 327.341,242.400 327.024 C 242.400 326.707,242.220 326.336,242.000 326.200 C 241.780 326.064,241.600 326.062,241.600 326.196 M122.693 328.108 C 121.941 329.035,121.806 329.600,122.336 329.600 C 122.677 329.600,123.732 327.598,123.508 327.375 C 123.442 327.308,123.075 327.638,122.693 328.108 M328.185 328.322 C 327.969 328.475,327.272 329.402,326.636 330.382 C 326.000 331.363,325.057 332.621,324.540 333.178 C 323.591 334.202,323.350 334.809,323.900 334.789 C 324.228 334.778,327.803 329.885,327.644 329.664 C 327.591 329.589,327.873 329.288,328.273 328.996 C 328.672 328.704,328.904 328.370,328.788 328.254 C 328.672 328.138,328.400 328.169,328.185 328.322 M372.040 331.007 C 371.513 332.001,371.190 332.924,371.324 333.057 C 371.457 333.191,371.864 332.557,372.227 331.650 C 372.590 330.742,373.047 330.000,373.243 330.000 C 373.440 330.000,373.600 329.820,373.600 329.600 C 373.600 328.710,372.946 329.300,372.040 331.007 M121.249 331.052 C 120.583 332.514,120.874 332.595,121.689 331.174 C 122.060 330.528,122.220 330.000,122.046 330.000 C 121.871 330.000,121.513 330.473,121.249 331.052 M244.800 332.620 C 244.800 333.153,246.081 335.252,246.283 335.050 C 246.590 334.743,245.589 332.400,245.151 332.400 C 244.958 332.400,244.800 332.499,244.800 332.620 M119.893 333.708 C 119.173 334.596,118.971 335.600,119.512 335.600 C 119.811 335.600,120.893 333.160,120.686 332.953 C 120.632 332.898,120.275 333.238,119.893 333.708 M322.489 335.823 C 322.000 336.165,321.600 336.615,321.600 336.823 C 321.600 337.526,322.305 337.204,322.963 336.200 C 323.730 335.030,323.679 334.989,322.489 335.823 M246.843 336.440 C 246.746 336.986,247.706 339.200,248.039 339.200 C 248.238 339.200,248.400 339.020,248.400 338.800 C 248.400 338.580,248.255 338.400,248.077 338.400 C 247.900 338.400,247.559 337.905,247.320 337.300 C 247.081 336.695,246.866 336.308,246.843 336.440 M367.606 338.500 L 366.665 340.200 367.664 339.200 C 368.720 338.144,369.390 336.800,368.861 336.800 C 368.689 336.800,368.124 337.565,367.606 338.500 M320.500 338.377 C 319.554 339.166,319.361 339.600,319.954 339.600 C 320.149 339.600,320.603 339.150,320.963 338.600 C 321.741 337.414,321.687 337.388,320.500 338.377 M318.261 341.067 C 317.854 341.610,317.615 342.148,317.729 342.262 C 317.843 342.376,318.245 341.998,318.622 341.422 C 319.512 340.064,319.223 339.780,318.261 341.067 M366.182 340.940 C 365.408 341.791,365.150 342.400,365.562 342.400 C 365.788 342.400,366.173 342.025,366.418 341.566 C 366.930 340.610,366.799 340.262,366.182 340.940 M248.933 341.771 C 249.185 342.305,249.455 342.678,249.532 342.601 C 249.781 342.353,249.158 340.800,248.811 340.800 C 248.626 340.800,248.681 341.237,248.933 341.771 M364.158 344.100 L 363.495 345.400 364.548 344.279 C 365.690 343.063,365.808 342.800,365.210 342.800 C 364.996 342.800,364.522 343.385,364.158 344.100 M315.225 344.408 C 314.469 345.054,313.962 345.695,314.098 345.832 C 314.456 346.189,315.042 345.746,316.009 344.388 C 317.052 342.923,316.960 342.925,315.225 344.408 M362.643 346.233 C 362.493 346.623,362.582 346.806,362.875 346.708 C 363.473 346.509,363.802 345.600,363.276 345.600 C 363.061 345.600,362.776 345.885,362.643 346.233 M250.800 346.776 C 250.800 346.983,250.983 347.266,251.207 347.404 C 251.430 347.542,251.517 347.810,251.400 348.000 C 251.283 348.190,251.370 348.458,251.593 348.596 C 252.057 348.882,252.092 348.584,251.748 347.300 C 251.512 346.421,250.800 346.028,250.800 346.776 M310.902 349.300 C 309.784 350.455,307.639 352.602,306.135 354.071 C 301.640 358.462,299.350 360.939,300.200 360.491 C 301.131 360.001,312.313 348.857,312.866 347.868 C 313.481 346.770,313.043 347.089,310.902 349.300 M360.134 350.101 C 359.474 351.035,358.791 352.070,358.616 352.400 C 358.132 353.315,360.107 351.156,360.936 349.865 C 362.104 348.045,361.451 348.237,360.134 350.101 M253.200 353.800 C 253.200 354.130,253.380 354.400,253.600 354.400 C 253.820 354.400,254.000 354.130,254.000 353.800 C 254.000 353.470,253.820 353.200,253.600 353.200 C 253.380 353.200,253.200 353.470,253.200 353.800 M357.384 353.627 C 357.239 353.861,357.216 354.149,357.333 354.267 C 357.620 354.553,358.400 354.048,358.400 353.576 C 358.400 353.065,357.709 353.099,357.384 353.627 M354.893 357.200 C 354.618 357.640,354.539 358.000,354.717 358.000 C 355.133 358.000,356.000 357.136,356.000 356.720 C 356.000 356.131,355.398 356.392,354.893 357.200 M351.265 361.871 C 349.871 363.517,348.855 364.984,349.009 365.132 C 349.162 365.279,349.583 364.950,349.944 364.400 C 350.305 363.850,350.960 363.023,351.400 362.562 C 352.498 361.412,354.100 359.166,353.935 359.008 C 353.861 358.937,352.659 360.226,351.265 361.871 M255.600 362.000 C 255.600 362.440,255.780 362.800,256.000 362.800 C 256.220 362.800,256.400 362.440,256.400 362.000 C 256.400 361.560,256.220 361.200,256.000 361.200 C 255.780 361.200,255.600 361.560,255.600 362.000 M296.415 363.216 C 295.570 363.938,295.268 364.400,295.640 364.400 C 295.976 364.400,296.768 363.860,297.400 363.200 C 298.874 361.662,298.221 361.672,296.415 363.216 M256.000 363.800 C 256.000 364.130,256.180 364.400,256.400 364.400 C 256.620 364.400,256.800 364.130,256.800 363.800 C 256.800 363.470,256.620 363.200,256.400 363.200 C 256.180 363.200,256.000 363.470,256.000 363.800 M108.800 364.600 C 108.800 364.930,108.980 365.200,109.200 365.200 C 109.420 365.200,109.600 364.930,109.600 364.600 C 109.600 364.270,109.420 364.000,109.200 364.000 C 108.980 364.000,108.800 364.270,108.800 364.600 M293.201 365.861 C 291.523 367.052,290.613 368.342,291.960 367.621 C 292.422 367.374,292.800 366.998,292.800 366.786 C 292.800 366.574,293.042 366.400,293.338 366.400 C 293.634 366.400,294.202 366.040,294.600 365.600 C 295.575 364.523,294.913 364.646,293.201 365.861 M347.525 366.298 C 346.608 367.365,346.312 368.000,346.730 368.000 C 347.163 368.000,348.550 366.017,348.296 365.763 C 348.204 365.671,347.857 365.911,347.525 366.298 M289.900 368.432 C 289.515 368.656,289.200 369.005,289.200 369.207 C 289.200 369.750,290.302 369.231,290.557 368.569 C 290.812 367.903,290.810 367.902,289.900 368.432 M344.949 369.302 C 343.118 371.391,342.910 371.779,343.900 371.251 C 344.844 370.748,346.242 368.908,345.922 368.589 C 345.820 368.487,345.382 368.807,344.949 369.302 M286.600 370.966 C 285.940 371.495,285.497 372.027,285.617 372.147 C 285.736 372.268,286.456 371.834,287.217 371.184 C 288.866 369.775,288.325 369.583,286.600 370.966 M284.400 372.409 C 284.400 372.633,283.950 373.022,283.400 373.273 C 282.850 373.523,282.400 373.897,282.400 374.103 C 282.400 374.566,284.932 373.003,285.126 372.421 C 285.204 372.189,285.072 372.000,284.833 372.000 C 284.595 372.000,284.400 372.184,284.400 372.409 M341.319 373.372 C 340.825 374.256,333.766 381.462,330.228 384.696 C 328.485 386.289,327.174 387.707,327.315 387.848 C 327.562 388.096,342.400 373.533,342.400 373.043 C 342.400 372.573,341.636 372.807,341.319 373.372 M106.400 374.800 C 106.400 375.240,106.580 375.600,106.800 375.600 C 107.020 375.600,107.200 375.240,107.200 374.800 C 107.200 374.360,107.020 374.000,106.800 374.000 C 106.580 374.000,106.400 374.360,106.400 374.800 M281.067 374.667 C 280.581 375.153,280.790 375.579,281.400 375.345 C 281.730 375.218,282.000 374.954,282.000 374.757 C 282.000 374.338,281.449 374.284,281.067 374.667 M278.806 376.382 C 278.259 376.802,277.899 377.231,278.006 377.337 C 278.113 377.442,278.740 377.095,279.400 376.566 C 280.812 375.434,280.262 375.263,278.806 376.382 M106.000 377.400 C 106.000 377.730,106.180 378.000,106.400 378.000 C 106.620 378.000,106.800 377.730,106.800 377.400 C 106.800 377.070,106.620 376.800,106.400 376.800 C 106.180 376.800,106.000 377.070,106.000 377.400 M276.000 378.293 L 275.000 379.301 276.300 378.640 C 277.015 378.277,277.600 377.804,277.600 377.590 C 277.600 376.975,277.081 377.202,276.000 378.293 M105.600 380.024 C 105.600 380.477,105.780 380.736,106.000 380.600 C 106.220 380.464,106.400 380.093,106.400 379.776 C 106.400 379.459,106.220 379.200,106.000 379.200 C 105.780 379.200,105.600 379.571,105.600 380.024 M272.793 380.300 C 272.790 380.465,271.710 381.134,270.393 381.786 C 269.077 382.439,268.000 383.086,268.000 383.226 C 268.000 383.365,267.280 383.803,266.400 384.200 C 265.520 384.597,264.800 385.068,264.800 385.247 C 264.800 385.426,265.475 385.194,266.300 384.730 C 270.689 382.262,273.200 380.670,273.200 380.354 C 273.200 379.926,272.803 379.873,272.793 380.300 M263.600 385.573 C 263.600 385.778,263.226 386.065,262.770 386.210 C 262.313 386.354,262.020 386.553,262.118 386.651 C 262.382 386.915,264.400 385.928,264.400 385.536 C 264.400 385.351,264.220 385.200,264.000 385.200 C 263.780 385.200,263.600 385.368,263.600 385.573 M324.479 390.035 C 323.555 390.714,322.800 391.434,322.800 391.635 C 322.800 392.260,323.146 392.052,324.848 390.400 C 326.827 388.480,326.727 388.381,324.479 390.035 M103.600 393.400 C 103.600 393.950,103.780 394.400,104.000 394.400 C 104.220 394.400,104.400 393.950,104.400 393.400 C 104.400 392.850,104.220 392.400,104.000 392.400 C 103.780 392.400,103.600 392.850,103.600 393.400 M320.900 393.070 C 320.405 393.415,320.000 393.856,320.000 394.049 C 320.000 394.686,320.589 394.391,321.319 393.387 C 322.149 392.246,322.117 392.221,320.900 393.070 M318.089 395.423 C 317.228 396.026,316.888 396.813,317.500 396.787 C 317.784 396.776,319.382 394.800,319.108 394.800 C 319.036 394.800,318.578 395.080,318.089 395.423 M315.402 397.598 C 315.003 398.039,314.862 398.400,315.089 398.400 C 315.592 398.400,316.590 397.257,316.321 396.988 C 316.215 396.882,315.802 397.156,315.402 397.598 M103.200 399.024 C 103.200 399.871,103.362 400.347,103.600 400.200 C 103.820 400.064,104.000 399.423,104.000 398.776 C 104.000 398.129,103.820 397.600,103.600 397.600 C 103.380 397.600,103.200 398.241,103.200 399.024 M312.600 399.875 C 311.035 401.286,311.029 401.301,312.335 400.559 C 313.070 400.141,313.841 399.485,314.049 399.100 C 314.564 398.149,314.444 398.213,312.600 399.875 M309.900 401.632 C 309.148 402.070,308.952 402.800,309.586 402.800 C 309.798 402.800,310.165 402.440,310.400 402.000 C 310.887 401.090,310.862 401.072,309.900 401.632 M307.243 403.623 C 306.717 404.061,306.382 404.515,306.499 404.632 C 306.616 404.749,307.207 404.384,307.814 403.822 C 309.108 402.623,308.641 402.460,307.243 403.623 M304.000 405.848 C 303.230 406.386,302.240 407.128,301.800 407.495 C 301.360 407.863,300.953 408.124,300.896 408.075 C 300.719 407.925,298.766 409.299,298.927 409.460 C 299.147 409.680,302.800 407.586,302.800 407.240 C 302.800 407.079,303.430 406.648,304.200 406.281 C 304.970 405.913,305.600 405.430,305.600 405.206 C 305.600 404.704,305.683 404.671,304.000 405.848 M294.900 411.670 C 293.745 412.319,292.800 413.019,292.800 413.225 C 292.800 413.817,293.379 413.665,294.262 412.843 C 294.709 412.426,295.643 411.791,296.338 411.432 C 297.032 411.073,297.600 410.694,297.600 410.590 C 297.600 410.245,297.024 410.476,294.900 411.670 M288.400 415.600 C 288.083 415.796,287.956 416.089,288.118 416.252 C 288.281 416.414,288.623 416.337,288.880 416.080 C 289.484 415.476,289.147 415.138,288.400 415.600 M103.200 417.776 C 103.200 418.559,103.380 419.200,103.600 419.200 C 103.820 419.200,104.000 418.671,104.000 418.024 C 104.000 417.377,103.820 416.736,103.600 416.600 C 103.362 416.453,103.200 416.929,103.200 417.776 M285.067 417.467 C 284.684 417.849,284.738 418.400,285.157 418.400 C 285.354 418.400,285.618 418.130,285.745 417.800 C 285.979 417.190,285.553 416.981,285.067 417.467 M280.500 420.088 C 280.005 420.327,279.600 420.675,279.600 420.861 C 279.600 421.394,279.965 421.264,280.892 420.400 C 281.852 419.505,281.798 419.462,280.500 420.088 M277.800 421.627 C 276.455 422.489,276.639 422.638,278.181 421.936 C 278.742 421.680,279.200 421.320,279.200 421.136 C 279.200 420.718,279.243 420.703,277.800 421.627 M103.600 422.600 C 103.600 423.150,103.780 423.600,104.000 423.600 C 104.220 423.600,104.400 423.150,104.400 422.600 C 104.400 422.050,104.220 421.600,104.000 421.600 C 103.780 421.600,103.600 422.050,103.600 422.600 M275.212 422.784 C 274.888 422.989,274.744 423.278,274.893 423.426 C 275.041 423.574,275.453 423.404,275.810 423.048 C 276.513 422.344,276.157 422.187,275.212 422.784 M269.612 425.584 C 269.288 425.789,269.144 426.078,269.293 426.226 C 269.441 426.374,269.853 426.204,270.210 425.848 C 270.913 425.144,270.557 424.987,269.612 425.584 M262.229 429.029 C 261.371 429.886,261.439 430.114,262.400 429.600 C 262.840 429.365,263.200 428.998,263.200 428.786 C 263.200 428.242,262.953 428.304,262.229 429.029 M106.189 434.699 C 106.485 435.878,106.702 436.233,106.965 435.967 C 107.275 435.653,106.707 433.600,106.310 433.600 C 106.077 433.600,106.027 434.054,106.189 434.699 M258.400 436.767 C 258.400 436.969,258.275 437.464,258.122 437.867 C 257.862 438.554,257.888 438.557,258.522 437.929 C 259.274 437.183,259.417 436.400,258.800 436.400 C 258.580 436.400,258.400 436.565,258.400 436.767 M108.400 440.371 C 108.400 440.576,108.670 441.013,109.000 441.343 C 109.330 441.673,109.600 442.125,109.600 442.348 C 109.600 442.571,109.789 442.870,110.021 443.013 C 110.252 443.156,110.162 442.604,109.821 441.787 C 109.479 440.971,109.200 440.234,109.200 440.151 C 109.200 440.068,109.020 440.000,108.800 440.000 C 108.580 440.000,108.400 440.167,108.400 440.371 M256.200 442.000 C 256.336 442.220,256.285 442.400,256.088 442.400 C 255.890 442.400,255.510 442.895,255.243 443.500 L 254.757 444.600 255.779 443.438 C 256.868 442.198,257.063 441.600,256.376 441.600 C 256.143 441.600,256.064 441.780,256.200 442.000 M110.813 444.700 C 110.830 445.100,111.630 446.066,112.530 446.774 C 113.153 447.264,113.133 447.131,112.391 445.874 C 111.605 444.543,110.780 443.929,110.813 444.700 M254.000 445.167 C 254.000 445.369,252.631 446.989,250.958 448.767 C 249.286 450.545,248.087 452.000,248.295 452.000 C 248.751 452.000,254.800 445.620,254.800 445.139 C 254.800 444.952,254.620 444.800,254.400 444.800 C 254.180 444.800,254.000 444.965,254.000 445.167 M113.205 447.867 C 113.210 448.257,116.721 451.725,117.600 452.208 C 117.930 452.390,117.211 451.472,116.001 450.169 C 113.745 447.737,113.197 447.286,113.205 447.867 M118.400 452.706 C 118.400 453.131,119.259 454.000,119.680 454.000 C 120.301 454.000,119.990 453.223,119.200 452.800 C 118.760 452.565,118.400 452.522,118.400 452.706 M245.765 453.397 C 245.124 453.948,244.780 454.395,245.000 454.391 C 245.601 454.378,247.422 452.889,247.159 452.625 C 247.032 452.499,246.405 452.847,245.765 453.397 M121.000 454.578 C 121.440 454.905,122.017 455.359,122.283 455.586 C 122.864 456.084,123.200 456.116,123.200 455.674 C 123.200 455.495,122.525 455.041,121.700 454.666 C 120.610 454.169,120.419 454.145,121.000 454.578 M243.300 454.888 C 242.805 455.127,242.400 455.475,242.400 455.661 C 242.400 456.194,242.765 456.064,243.692 455.200 C 244.652 454.305,244.598 454.262,243.300 454.888 M138.100 460.276 C 138.485 460.376,139.115 460.376,139.500 460.276 C 139.885 460.175,139.570 460.093,138.800 460.093 C 138.030 460.093,137.715 460.175,138.100 460.276 M148.500 460.691 C 149.325 460.778,150.675 460.778,151.500 460.691 C 152.325 460.605,151.650 460.534,150.000 460.534 C 148.350 460.534,147.675 460.605,148.500 460.691 M215.911 460.693 C 216.851 460.778,218.291 460.777,219.111 460.691 C 219.930 460.605,219.160 460.536,217.400 460.537 C 215.640 460.539,214.970 460.609,215.911 460.693 " stroke="none" fill="#ffffff" fill-rule="evenodd"></path><path id="path1" d="M171.400 0.409 C 169.640 0.594,166.580 0.761,164.600 0.782 C 162.620 0.802,160.370 0.902,159.600 1.003 C 158.830 1.104,155.230 1.471,151.600 1.817 C 147.970 2.164,144.311 2.649,143.469 2.896 C 142.275 3.247,141.868 3.234,141.624 2.839 C 141.384 2.451,141.255 2.481,141.068 2.966 C 140.935 3.315,140.414 3.606,139.913 3.613 C 138.725 3.630,130.741 5.230,124.400 6.723 C 119.681 7.833,117.833 8.360,111.600 10.375 C 110.170 10.837,107.650 11.652,106.000 12.185 C 101.595 13.608,96.489 15.517,94.125 16.627 C 92.984 17.162,91.927 17.600,91.776 17.600 C 91.109 17.600,74.570 25.444,71.200 27.358 C 70.650 27.670,68.850 28.693,67.200 29.630 C 62.228 32.455,59.165 34.293,56.956 35.776 C 56.320 36.204,54.299 37.554,52.465 38.776 C 50.631 39.999,48.628 41.360,48.013 41.800 C 47.399 42.240,46.019 43.216,44.948 43.969 C 43.877 44.722,42.425 45.802,41.723 46.369 C 41.020 46.936,39.940 47.793,39.323 48.274 C 22.556 61.328,3.194 82.122,1.417 88.984 C -1.191 99.056,4.213 108.748,13.804 111.201 C 15.538 111.645,17.057 112.141,17.179 112.304 C 17.465 112.687,19.983 112.696,19.746 112.313 C 19.648 112.154,20.070 111.915,20.684 111.781 C 24.995 110.847,29.024 107.949,38.200 99.184 C 41.520 96.013,46.553 91.280,52.000 86.207 C 54.401 83.971,59.884 79.231,62.041 77.527 C 62.789 76.936,64.570 75.543,66.000 74.430 C 67.430 73.317,68.814 72.228,69.076 72.010 C 78.558 64.114,103.878 51.202,119.000 46.551 C 120.760 46.010,122.485 45.411,122.834 45.221 C 123.183 45.031,125.433 44.398,127.834 43.814 C 130.235 43.230,132.563 42.575,133.006 42.359 C 133.837 41.953,141.455 40.417,147.800 39.376 C 149.780 39.051,153.223 38.701,155.452 38.599 C 157.680 38.496,159.791 38.302,160.142 38.167 C 160.493 38.032,162.495 37.985,164.590 38.061 C 166.686 38.137,168.400 38.065,168.400 37.900 C 168.400 37.577,189.338 37.472,189.659 37.793 C 189.765 37.898,192.090 38.068,194.826 38.169 C 200.231 38.368,204.627 38.877,209.000 39.811 C 210.540 40.139,213.870 40.837,216.400 41.361 C 222.162 42.554,230.534 44.653,231.483 45.141 C 231.877 45.344,235.170 46.505,238.800 47.719 C 245.538 49.974,249.384 51.473,254.000 53.640 C 259.025 56.000,267.806 60.483,268.400 60.992 C 268.730 61.275,269.804 61.912,270.788 62.406 C 271.771 62.901,273.031 63.615,273.588 63.992 C 274.144 64.369,276.940 66.228,279.800 68.122 C 282.660 70.017,286.530 72.748,288.400 74.192 C 290.270 75.636,292.706 77.510,293.813 78.357 C 298.994 82.320,310.089 92.983,315.956 99.638 C 317.780 101.707,319.661 103.832,320.136 104.359 C 320.611 104.887,321.360 105.810,321.800 106.410 C 322.240 107.011,324.140 109.549,326.021 112.051 C 330.146 117.535,337.629 128.922,338.293 130.725 C 338.430 131.096,338.668 131.490,338.823 131.600 C 339.486 132.071,346.747 146.966,348.413 151.273 C 348.866 152.443,349.485 153.940,349.788 154.600 C 350.501 156.153,352.189 160.943,353.452 165.000 C 353.999 166.760,354.615 168.560,354.820 169.000 C 355.373 170.187,357.573 179.114,358.665 184.600 C 359.191 187.240,359.877 190.570,360.191 192.000 C 362.817 203.983,363.047 237.259,360.598 250.800 C 358.863 260.391,358.241 263.378,356.787 269.084 C 355.902 272.558,355.024 275.760,354.836 276.200 C 354.649 276.640,353.652 279.586,352.621 282.747 C 351.590 285.907,350.337 289.417,349.836 290.547 C 349.335 291.676,348.692 293.230,348.406 294.000 C 347.182 297.307,340.083 311.861,339.041 313.200 C 338.785 313.530,338.143 314.610,337.615 315.600 C 337.087 316.590,336.353 317.850,335.985 318.400 C 335.617 318.950,334.531 320.660,333.573 322.200 C 332.615 323.740,331.500 325.450,331.096 326.000 C 322.862 337.204,323.235 336.724,317.800 343.131 C 312.643 349.211,304.566 357.441,299.000 362.288 C 292.428 368.010,292.765 367.729,291.200 368.802 C 290.430 369.330,289.710 369.872,289.600 370.007 C 289.411 370.239,287.727 371.459,283.811 374.200 C 273.758 381.237,261.250 388.584,260.537 387.871 C 260.392 387.725,259.951 385.130,259.557 382.103 C 259.163 379.076,258.562 375.610,258.221 374.400 C 257.881 373.190,257.168 370.310,256.638 368.000 C 255.272 362.043,253.241 354.468,252.798 353.674 C 252.592 353.303,252.065 351.830,251.627 350.400 C 249.226 342.549,243.754 330.988,235.631 316.600 C 234.762 315.062,233.254 312.565,231.403 309.600 C 230.922 308.830,229.746 306.940,228.788 305.400 C 227.831 303.860,224.805 299.180,222.064 295.000 C 219.322 290.820,216.203 286.050,215.132 284.400 C 214.061 282.750,212.911 281.040,212.577 280.600 C 212.244 280.161,212.022 279.466,212.085 279.056 C 212.211 278.237,212.525 278.057,220.512 274.189 C 225.718 271.668,229.625 269.300,232.800 266.742 C 233.570 266.121,234.814 265.115,235.566 264.507 C 246.780 255.418,255.837 240.422,256.675 229.559 C 256.810 227.807,257.074 226.278,257.260 226.163 C 257.757 225.856,257.676 221.836,257.163 221.323 C 256.615 220.775,256.100 192.000,256.639 192.000 C 257.555 191.999,256.734 163.474,255.724 160.200 C 255.588 159.760,254.897 156.610,254.188 153.200 C 252.441 144.800,249.376 134.189,247.428 129.800 C 247.135 129.140,246.582 127.610,246.198 126.400 C 245.814 125.190,245.098 123.300,244.608 122.200 C 244.117 121.100,243.482 119.480,243.197 118.600 C 242.912 117.720,242.458 116.640,242.188 116.200 C 241.917 115.760,241.381 114.548,240.996 113.506 C 239.576 109.666,238.927 109.951,231.400 117.710 C 218.316 131.198,207.221 148.920,205.006 159.872 C 204.556 162.097,204.239 162.162,197.707 161.376 C 194.458 160.985,191.710 160.561,191.600 160.433 C 191.332 160.121,176.255 160.133,176.000 160.445 C 175.890 160.580,173.190 160.996,170.000 161.370 C 166.810 161.744,163.810 162.144,163.332 162.260 C 162.012 162.580,161.676 161.962,158.535 153.435 C 153.939 140.962,142.730 125.558,128.701 112.436 L 126.401 110.285 124.981 113.442 C 124.200 115.179,123.224 117.320,122.811 118.200 C 119.958 124.288,114.197 142.069,111.538 153.000 C 110.196 158.515,108.875 170.077,108.832 176.676 C 108.814 179.460,108.628 181.659,108.400 181.800 C 107.911 182.103,107.866 184.670,108.345 184.966 C 108.535 185.084,108.784 187.839,108.898 191.090 C 109.011 194.340,109.313 197.524,109.567 198.166 C 110.575 200.703,110.576 206.348,109.570 209.800 C 108.532 213.362,108.221 227.412,109.096 231.200 C 110.022 235.207,111.721 240.363,113.022 243.115 C 113.780 244.719,114.400 246.204,114.400 246.415 C 114.400 246.627,114.568 246.800,114.773 246.800 C 114.978 246.800,115.261 247.161,115.401 247.603 C 116.138 249.924,125.262 260.380,130.760 265.203 C 134.917 268.851,136.588 269.904,145.066 274.218 C 154.974 279.259,154.483 278.695,152.139 282.332 C 150.318 285.157,146.605 290.882,142.974 296.462 C 136.929 305.751,136.110 307.058,131.839 314.233 C 130.540 316.415,128.988 319.010,128.389 320.000 C 121.277 331.763,113.883 349.304,110.769 361.797 C 110.330 363.559,109.789 365.462,109.567 366.027 C 107.824 370.461,104.000 397.027,104.000 404.705 C 104.000 405.637,103.820 406.400,103.600 406.400 C 103.374 406.400,103.200 407.533,103.200 409.000 C 103.200 410.430,103.355 411.600,103.545 411.600 C 103.735 411.600,104.013 413.355,104.164 415.500 C 104.695 423.078,105.952 430.236,107.575 434.922 C 110.303 442.799,112.718 446.487,118.796 452.056 C 120.081 453.233,124.986 455.976,127.016 456.652 C 128.107 457.016,129.180 457.447,129.400 457.610 C 132.596 459.979,163.501 461.067,205.200 460.279 C 228.548 459.837,231.522 459.534,237.966 456.941 C 248.332 452.771,256.603 443.658,259.186 433.563 C 260.130 429.877,261.297 428.553,264.800 427.201 C 270.148 425.136,286.039 416.799,292.600 412.615 C 298.952 408.565,300.223 407.762,300.853 407.400 C 301.640 406.947,308.648 402.083,310.844 400.464 C 321.298 392.761,333.174 381.886,342.006 371.929 C 343.826 369.878,345.651 367.840,346.063 367.400 C 347.577 365.784,351.494 360.879,354.850 356.400 C 359.542 350.137,361.793 346.847,367.200 338.344 C 371.157 332.121,382.400 310.176,382.400 308.674 C 382.400 308.519,382.750 307.628,383.178 306.696 C 385.112 302.479,388.001 294.265,391.231 283.800 C 397.618 263.105,400.665 231.274,398.775 205.000 C 398.553 201.920,398.333 197.960,398.286 196.200 C 398.239 194.440,398.093 192.910,397.962 192.800 C 397.831 192.690,397.528 191.160,397.288 189.400 C 396.586 184.254,394.826 174.679,394.398 173.686 C 394.182 173.183,393.554 170.753,393.003 168.286 C 392.452 165.819,391.830 163.440,391.621 163.000 C 391.413 162.560,390.771 160.425,390.196 158.255 C 389.621 156.085,388.982 154.015,388.775 153.655 C 388.569 153.295,387.964 151.650,387.432 150.000 C 386.088 145.837,381.681 134.437,380.832 132.927 C 380.607 132.527,379.680 130.580,378.773 128.600 C 376.690 124.053,373.578 117.880,372.094 115.348 C 371.465 114.277,370.822 113.130,370.663 112.800 C 370.504 112.470,369.795 111.267,369.087 110.126 C 368.379 108.986,367.207 107.096,366.481 105.926 C 365.756 104.757,364.448 102.720,363.576 101.400 C 362.703 100.080,361.676 98.493,361.294 97.872 C 360.707 96.919,356.405 91.104,354.083 88.124 C 353.707 87.642,352.680 86.308,351.800 85.159 C 345.365 76.759,332.704 63.568,323.000 55.153 C 315.111 48.313,315.575 48.691,310.000 44.552 C 307.470 42.673,305.124 40.926,304.787 40.668 C 297.659 35.224,280.564 25.451,268.600 19.981 C 258.166 15.210,239.092 8.721,229.800 6.781 C 227.600 6.322,225.440 5.785,225.000 5.588 C 224.560 5.392,221.770 4.857,218.800 4.399 C 215.830 3.942,212.140 3.307,210.600 2.988 C 207.344 2.314,201.349 1.603,198.900 1.601 C 197.965 1.601,197.200 1.465,197.200 1.300 C 197.200 1.135,195.985 0.993,194.500 0.985 C 191.387 0.967,181.507 0.552,177.400 0.267 C 175.860 0.161,173.160 0.224,171.400 0.409 " stroke="none" fill="#ffffff" fill-rule="evenodd"></path><path id="path2" d="M171.000 38.000 C 170.678 38.521,173.994 38.521,174.800 38.000 C 175.230 37.722,174.812 37.611,173.324 37.606 C 172.182 37.603,171.136 37.780,171.000 38.000 M183.400 38.000 C 183.536 38.220,184.457 38.400,185.447 38.400 C 186.545 38.400,187.151 38.244,187.000 38.000 C 186.864 37.780,185.943 37.600,184.953 37.600 C 183.855 37.600,183.249 37.756,183.400 38.000 M136.800 41.600 C 135.976 41.864,135.941 41.926,136.600 41.954 C 137.040 41.973,137.670 41.813,138.000 41.600 C 138.701 41.147,138.214 41.147,136.800 41.600 M256.673 194.553 C 256.523 194.945,256.411 195.566,256.425 195.933 C 256.442 196.375,256.581 196.274,256.837 195.634 C 257.049 195.103,257.161 194.482,257.085 194.254 C 257.009 194.027,256.824 194.161,256.673 194.553 M361.600 212.153 C 361.600 212.483,361.780 212.864,362.000 213.000 C 362.220 213.136,362.400 212.977,362.400 212.647 C 362.400 212.317,362.220 211.936,362.000 211.800 C 361.780 211.664,361.600 211.823,361.600 212.153 M103.200 402.600 C 103.200 402.930,103.380 403.200,103.600 403.200 C 103.820 403.200,104.000 402.930,104.000 402.600 C 104.000 402.270,103.820 402.000,103.600 402.000 C 103.380 402.000,103.200 402.270,103.200 402.600 M161.105 460.683 C 161.602 460.779,162.322 460.775,162.705 460.675 C 163.087 460.575,162.680 460.496,161.800 460.501 C 160.920 460.505,160.607 460.587,161.105 460.683 M205.900 460.682 C 206.395 460.778,207.205 460.778,207.700 460.682 C 208.195 460.587,207.790 460.509,206.800 460.509 C 205.810 460.509,205.405 460.587,205.900 460.682 " stroke="none" fill="#ffffff" fill-rule="evenodd"></path><path id="path3" d="M89.642 17.634 C 89.115 17.845,88.784 18.117,88.907 18.240 C 89.029 18.362,89.640 18.186,90.265 17.847 C 91.521 17.166,91.139 17.035,89.642 17.634 M268.800 19.734 C 268.800 19.837,269.381 20.124,270.091 20.372 C 270.801 20.619,271.206 20.657,270.991 20.456 C 270.535 20.029,268.800 19.458,268.800 19.734 M290.203 30.805 C 290.337 31.022,290.692 31.200,290.990 31.200 C 291.289 31.200,291.625 31.384,291.737 31.610 C 291.849 31.836,291.899 31.808,291.849 31.548 C 291.800 31.289,291.354 30.927,290.859 30.744 C 290.288 30.532,290.049 30.555,290.203 30.805 M177.600 38.000 C 176.523 38.227,176.892 38.298,179.200 38.307 C 181.253 38.316,181.884 38.219,181.200 38.000 C 179.997 37.615,179.431 37.615,177.600 38.000 M164.900 38.276 C 165.285 38.376,165.915 38.376,166.300 38.276 C 166.685 38.175,166.370 38.093,165.600 38.093 C 164.830 38.093,164.515 38.175,164.900 38.276 M47.101 41.537 C 46.496 41.901,46.001 42.347,46.001 42.527 C 46.000 42.707,46.540 42.470,47.200 42.000 C 48.977 40.734,48.915 40.442,47.101 41.537 M39.878 47.013 C 39.260 47.556,38.914 48.000,39.108 48.000 C 39.302 48.000,39.883 47.550,40.400 47.000 C 41.595 45.728,41.331 45.734,39.878 47.013 M316.000 48.493 C 316.000 48.621,316.934 49.507,318.074 50.462 C 319.771 51.883,320.018 51.999,319.428 51.100 C 319.032 50.495,318.515 50.000,318.280 50.000 C 318.044 50.000,317.435 49.609,316.926 49.130 C 316.417 48.652,316.000 48.365,316.000 48.493 M321.362 53.142 C 322.209 54.095,322.400 54.182,322.400 53.614 C 322.400 53.402,321.995 53.016,321.500 52.756 C 320.605 52.286,320.604 52.288,321.362 53.142 M324.488 55.819 C 325.086 56.445,325.682 56.852,325.811 56.722 C 325.940 56.593,325.451 56.081,324.723 55.584 L 323.400 54.680 324.488 55.819 M27.600 57.400 C 27.326 57.730,26.854 58.000,26.551 58.000 C 26.248 58.000,26.000 58.180,26.000 58.400 C 26.000 59.078,26.617 58.846,27.600 57.800 C 28.117 57.250,28.440 56.800,28.319 56.800 C 28.197 56.800,27.874 57.070,27.600 57.400 M332.376 63.081 C 332.896 63.785,333.555 64.451,333.840 64.560 C 334.703 64.891,334.034 63.871,332.687 62.800 L 331.430 61.800 332.376 63.081 M335.449 66.141 C 336.298 67.300,337.276 67.864,336.946 67.004 C 336.829 66.698,336.275 66.148,335.716 65.782 L 334.699 65.115 335.449 66.141 M13.500 70.957 C 12.769 71.512,12.584 72.000,13.104 72.000 C 13.271 72.000,13.632 71.640,13.907 71.200 C 14.489 70.268,14.444 70.240,13.500 70.957 M291.800 78.000 C 291.936 78.220,292.250 78.400,292.498 78.400 C 292.746 78.400,293.329 78.715,293.793 79.100 C 294.258 79.485,294.132 79.305,293.513 78.700 C 292.429 77.641,291.290 77.176,291.800 78.000 M348.962 81.142 C 349.809 82.095,350.000 82.182,350.000 81.614 C 350.000 81.402,349.595 81.016,349.100 80.756 C 348.205 80.286,348.204 80.288,348.962 81.142 M301.676 85.966 C 301.768 86.277,302.284 86.806,302.822 87.141 C 303.580 87.614,303.665 87.621,303.200 87.175 C 302.870 86.859,302.354 86.330,302.054 86.000 C 301.615 85.517,301.541 85.510,301.676 85.966 M39.070 98.796 C 37.797 100.114,37.010 101.094,37.319 100.976 C 37.821 100.783,41.840 96.400,41.514 96.400 C 41.442 96.400,40.342 97.478,39.070 98.796 M312.749 97.078 C 312.999 97.560,313.395 98.073,313.629 98.218 C 314.425 98.710,314.245 98.202,313.268 97.200 C 312.385 96.294,312.336 96.283,312.749 97.078 M316.419 101.095 C 316.927 101.807,317.436 102.297,317.550 102.183 C 317.664 102.069,317.249 101.486,316.626 100.888 L 315.495 99.800 316.419 101.095 M318.915 104.148 C 319.182 104.723,319.535 105.195,319.700 105.197 C 320.246 105.203,320.012 104.535,319.215 103.813 C 318.447 103.118,318.440 103.126,318.915 104.148 M126.800 110.125 C 126.800 110.194,127.385 110.779,128.100 111.425 L 129.400 112.600 128.225 111.300 C 127.130 110.088,126.800 109.816,126.800 110.125 M236.912 111.370 C 236.423 111.641,235.613 112.387,235.112 113.029 C 234.337 114.021,234.485 113.959,236.100 112.614 C 238.408 110.691,238.560 110.457,236.912 111.370 M232.378 115.900 L 231.000 117.400 232.500 116.022 C 233.896 114.738,234.184 114.400,233.878 114.400 C 233.812 114.400,233.137 115.075,232.378 115.900 M222.915 125.852 C 222.440 126.874,222.447 126.882,223.215 126.187 C 224.012 125.465,224.246 124.797,223.700 124.803 C 223.535 124.805,223.182 125.277,222.915 125.852 M342.522 140.000 C 342.772 140.660,343.121 141.200,343.298 141.200 C 343.475 141.200,343.341 140.660,343.000 140.000 C 342.659 139.340,342.310 138.800,342.224 138.800 C 342.139 138.800,342.273 139.340,342.522 140.000 M172.400 160.400 C 172.400 160.620,172.670 160.800,173.000 160.800 C 173.330 160.800,173.600 160.620,173.600 160.400 C 173.600 160.180,173.330 160.000,173.000 160.000 C 172.670 160.000,172.400 160.180,172.400 160.400 M181.700 160.296 C 182.965 160.375,185.035 160.375,186.300 160.296 C 187.565 160.216,186.530 160.151,184.000 160.151 C 181.470 160.151,180.435 160.216,181.700 160.296 M108.449 173.000 C 108.416 173.440,108.296 174.250,108.183 174.800 L 107.977 175.800 108.406 174.819 C 108.642 174.279,108.761 173.469,108.672 173.019 C 108.513 172.221,108.507 172.221,108.449 173.000 M108.068 191.200 C 108.088 192.239,108.718 193.946,108.732 193.000 C 108.738 192.560,108.589 191.840,108.400 191.400 C 108.189 190.910,108.061 190.832,108.068 191.200 M256.659 197.488 C 256.521 198.319,256.431 199.810,256.458 200.800 C 256.492 202.084,256.602 201.688,256.841 199.421 C 257.193 196.078,257.084 194.916,256.659 197.488 M256.440 206.833 C 256.462 208.025,256.627 209.450,256.806 210.000 C 256.999 210.592,257.042 209.776,256.911 208.000 C 256.647 204.436,256.384 203.783,256.440 206.833 M361.634 213.800 C 361.672 215.166,362.338 216.442,362.366 215.200 C 362.378 214.650,362.213 213.930,362.000 213.600 C 361.680 213.105,361.616 213.140,361.634 213.800 M108.114 218.600 C 108.117 219.700,108.195 220.103,108.287 219.495 C 108.379 218.886,108.377 217.986,108.282 217.495 C 108.187 217.003,108.111 217.500,108.114 218.600 M399.751 221.600 C 399.751 224.130,399.816 225.165,399.896 223.900 C 399.975 222.635,399.975 220.565,399.896 219.300 C 399.816 218.035,399.751 219.070,399.751 221.600 M108.109 224.000 C 108.109 224.990,108.187 225.395,108.282 224.900 C 108.378 224.405,108.378 223.595,108.282 223.100 C 108.187 222.605,108.109 223.010,108.109 224.000 M361.896 230.133 C 361.433 231.279,361.516 232.244,362.034 231.726 C 362.272 231.488,362.406 230.867,362.330 230.346 C 362.209 229.513,362.157 229.488,361.896 230.133 M246.401 253.798 C 245.886 254.348,245.539 254.864,245.632 254.946 C 245.724 255.028,246.219 254.578,246.730 253.947 C 247.876 252.535,247.674 252.444,246.401 253.798 M240.600 260.461 C 239.622 261.476,239.339 261.943,239.872 261.662 C 240.601 261.277,242.727 258.799,242.327 258.800 C 242.257 258.801,241.480 259.548,240.600 260.461 M127.200 262.600 C 128.395 263.810,129.463 264.800,129.573 264.800 C 129.683 264.800,128.795 263.810,127.600 262.600 C 126.405 261.390,125.337 260.400,125.227 260.400 C 125.117 260.400,126.005 261.390,127.200 262.600 M142.400 273.396 C 142.400 273.670,144.849 274.884,145.032 274.701 C 145.119 274.614,144.562 274.244,143.795 273.878 C 143.028 273.512,142.400 273.295,142.400 273.396 M121.400 331.600 C 121.059 332.260,120.869 332.800,120.979 332.800 C 121.089 332.800,121.459 332.260,121.800 331.600 C 122.141 330.940,122.331 330.400,122.221 330.400 C 122.111 330.400,121.741 330.940,121.400 331.600 M319.078 340.423 C 318.902 341.098,318.965 341.161,319.431 340.774 C 320.068 340.246,320.186 339.600,319.647 339.600 C 319.452 339.600,319.196 339.970,319.078 340.423 M316.515 343.452 C 316.040 344.474,316.047 344.482,316.815 343.787 C 317.612 343.065,317.846 342.397,317.300 342.403 C 317.135 342.405,316.782 342.877,316.515 343.452 M314.305 346.029 C 313.923 346.252,313.418 346.832,313.183 347.317 C 312.785 348.140,312.796 348.150,313.346 347.468 C 313.670 347.065,314.265 346.486,314.668 346.180 C 315.522 345.533,315.309 345.444,314.305 346.029 M309.781 351.300 L 308.200 353.000 309.900 351.419 C 311.481 349.948,311.784 349.600,311.481 349.600 C 311.416 349.600,310.651 350.365,309.781 351.300 M303.600 357.400 C 302.628 358.390,301.923 359.200,302.033 359.200 C 302.143 359.200,303.028 358.390,304.000 357.400 C 304.972 356.410,305.677 355.600,305.567 355.600 C 305.457 355.600,304.572 356.410,303.600 357.400 M299.144 361.187 C 298.625 361.619,298.397 361.979,298.638 361.987 C 298.879 361.994,299.402 361.640,299.800 361.200 C 300.726 360.176,300.366 360.169,299.144 361.187 M339.578 375.100 L 338.200 376.600 339.700 375.222 C 341.096 373.938,341.384 373.600,341.078 373.600 C 341.012 373.600,340.337 374.275,339.578 375.100 M325.367 389.006 L 323.800 390.411 325.278 389.506 C 326.091 389.008,326.850 388.375,326.965 388.100 C 327.277 387.355,327.083 387.465,325.367 389.006 M103.492 400.242 C 103.331 400.402,103.200 400.809,103.200 401.147 C 103.200 401.597,103.318 401.642,103.645 401.315 C 103.890 401.070,104.021 400.663,103.937 400.410 C 103.852 400.157,103.652 400.081,103.492 400.242 M116.000 450.125 C 116.000 450.194,116.585 450.779,117.300 451.425 L 118.600 452.600 117.425 451.300 C 116.330 450.088,116.000 449.816,116.000 450.125 M153.700 460.687 C 154.305 460.778,155.295 460.778,155.900 460.687 C 156.505 460.595,156.010 460.520,154.800 460.520 C 153.590 460.520,153.095 460.595,153.700 460.687 M212.305 460.683 C 212.802 460.779,213.522 460.775,213.905 460.675 C 214.287 460.575,213.880 460.496,213.000 460.501 C 212.120 460.505,211.807 460.587,212.305 460.683 " stroke="none" fill="#ffffff" fill-rule="evenodd"></path><path id="path4" d="M174.800 38.000 C 174.034 38.495,175.073 38.504,177.400 38.023 L 179.000 37.692 177.200 37.652 C 176.210 37.630,175.130 37.787,174.800 38.000 M181.200 38.000 C 182.645 38.463,183.686 38.463,183.400 38.000 C 183.264 37.780,182.488 37.618,181.676 37.640 C 180.350 37.676,180.302 37.712,181.200 38.000 M157.705 460.687 C 158.314 460.779,159.214 460.777,159.705 460.682 C 160.197 460.587,159.700 460.511,158.600 460.514 C 157.500 460.517,157.097 460.595,157.705 460.687 M209.100 460.682 C 209.595 460.778,210.405 460.778,210.900 460.682 C 211.395 460.587,210.990 460.509,210.000 460.509 C 209.010 460.509,208.605 460.587,209.100 460.682 " stroke="none" fill="#ffffff" fill-rule="evenodd"></path><path id="path5" d="M187.000 38.000 C 187.136 38.220,187.517 38.400,187.847 38.400 C 188.177 38.400,188.336 38.220,188.200 38.000 C 188.064 37.780,187.683 37.600,187.353 37.600 C 187.023 37.600,186.864 37.780,187.000 38.000 M302.400 86.125 C 302.400 86.194,302.985 86.779,303.700 87.425 L 305.000 88.600 303.825 87.300 C 302.730 86.088,302.400 85.816,302.400 86.125 M108.249 177.015 C 108.112 177.373,108.015 177.966,108.034 178.333 C 108.053 178.700,108.227 178.469,108.421 177.820 C 108.798 176.558,108.665 175.933,108.249 177.015 M110.101 204.600 C 110.105 205.480,110.187 205.793,110.283 205.295 C 110.379 204.798,110.375 204.078,110.275 203.695 C 110.175 203.313,110.096 203.720,110.101 204.600 M203.300 460.676 C 203.685 460.776,204.315 460.776,204.700 460.676 C 205.085 460.575,204.770 460.493,204.000 460.493 C 203.230 460.493,202.915 460.575,203.300 460.676 " stroke="none" fill="#fffff" fill-rule="evenodd"></path><path id="path6" d="M165.700 460.676 C 166.085 460.776,166.715 460.776,167.100 460.676 C 167.485 460.575,167.170 460.493,166.400 460.493 C 165.630 460.493,165.315 460.575,165.700 460.676 M200.900 460.676 C 201.285 460.776,201.915 460.776,202.300 460.676 C 202.685 460.575,202.370 460.493,201.600 460.493 C 200.830 460.493,200.515 460.575,200.900 460.676 " stroke="none" fill="#ffffff" fill-rule="evenodd"></path><path id="path7" d="M0.509 94.000 C 0.509 94.990,0.587 95.395,0.682 94.900 C 0.778 94.405,0.778 93.595,0.682 93.100 C 0.587 92.605,0.509 93.010,0.509 94.000 M108.028 187.476 C 108.013 187.958,108.180 188.464,108.400 188.600 C 108.873 188.892,108.873 188.501,108.400 187.400 C 108.069 186.629,108.055 186.631,108.028 187.476 M399.324 213.800 C 399.326 215.120,399.401 215.612,399.490 214.893 C 399.579 214.174,399.577 213.094,399.486 212.493 C 399.395 211.892,399.322 212.480,399.324 213.800 M399.320 229.600 C 399.320 230.810,399.395 231.305,399.487 230.700 C 399.578 230.095,399.578 229.105,399.487 228.500 C 399.395 227.895,399.320 228.390,399.320 229.600 M148.307 460.290 C 149.026 460.379,150.106 460.377,150.707 460.286 C 151.308 460.195,150.720 460.122,149.400 460.124 C 148.080 460.126,147.588 460.201,148.307 460.290 M216.707 460.290 C 217.426 460.379,218.506 460.377,219.107 460.286 C 219.708 460.195,219.120 460.122,217.800 460.124 C 216.480 460.126,215.988 460.201,216.707 460.290 M168.691 460.689 C 169.401 460.777,170.661 460.779,171.491 460.692 C 172.321 460.605,171.740 460.533,170.200 460.531 C 168.660 460.529,167.981 460.600,168.691 460.689 M198.500 460.676 C 198.885 460.776,199.515 460.776,199.900 460.676 C 200.285 460.575,199.970 460.493,199.200 460.493 C 198.430 460.493,198.115 460.575,198.500 460.676 " stroke="none" fill="#ffffff" fill-rule="evenodd"></path><path id="path8" d="M171.900 0.282 C 172.395 0.378,173.205 0.378,173.700 0.282 C 174.195 0.187,173.790 0.109,172.800 0.109 C 171.810 0.109,171.405 0.187,171.900 0.282 M178.705 0.283 C 179.202 0.379,179.922 0.375,180.305 0.275 C 180.687 0.175,180.280 0.096,179.400 0.101 C 178.520 0.105,178.207 0.187,178.705 0.283 M166.505 0.687 C 167.114 0.779,168.014 0.777,168.505 0.682 C 168.997 0.587,168.500 0.511,167.400 0.514 C 166.300 0.517,165.897 0.595,166.505 0.687 M184.105 0.687 C 184.714 0.779,185.614 0.777,186.105 0.682 C 186.597 0.587,186.100 0.511,185.000 0.514 C 183.900 0.517,183.497 0.595,184.105 0.687 M308.000 91.325 C 308.000 91.394,308.585 91.979,309.300 92.625 L 310.600 93.800 309.425 92.500 C 308.330 91.288,308.000 91.016,308.000 91.325 M170.700 161.082 C 171.195 161.178,172.005 161.178,172.500 161.082 C 172.995 160.987,172.590 160.909,171.600 160.909 C 170.610 160.909,170.205 160.987,170.700 161.082 M195.505 161.083 C 196.002 161.179,196.722 161.175,197.105 161.075 C 197.487 160.975,197.080 160.896,196.200 160.901 C 195.320 160.905,195.007 160.987,195.505 161.083 M257.000 178.464 C 257.000 180.877,257.117 182.434,257.260 181.925 C 257.624 180.630,257.649 175.097,257.294 174.539 C 257.132 174.286,257.000 176.052,257.000 178.464 M108.296 180.133 C 107.833 181.279,107.916 182.244,108.434 181.726 C 108.672 181.488,108.806 180.867,108.730 180.346 C 108.609 179.513,108.557 179.488,108.296 180.133 M108.028 185.676 C 108.082 187.448,108.740 188.375,108.772 186.724 C 108.787 185.912,108.620 185.136,108.400 185.000 C 108.175 184.861,108.012 185.157,108.028 185.676 M399.360 221.800 C 399.361 225.100,399.422 226.397,399.498 224.682 C 399.573 222.967,399.572 220.267,399.497 218.682 C 399.421 217.097,399.359 218.500,399.360 221.800 M342.975 370.900 L 341.800 372.200 343.100 371.025 C 343.815 370.379,344.400 369.794,344.400 369.725 C 344.400 369.416,344.070 369.688,342.975 370.900 M103.994 399.119 L 104.187 401.400 104.318 399.444 C 104.390 398.369,104.303 397.342,104.124 397.163 C 103.946 396.984,103.887 397.864,103.994 399.119 M103.200 405.600 C 103.200 406.040,103.380 406.400,103.600 406.400 C 103.820 406.400,104.000 406.040,104.000 405.600 C 104.000 405.160,103.820 404.800,103.600 404.800 C 103.380 404.800,103.200 405.160,103.200 405.600 M103.993 417.881 C 103.887 419.025,103.947 419.815,104.126 419.635 C 104.305 419.456,104.391 418.519,104.318 417.554 L 104.185 415.800 103.993 417.881 M153.900 460.296 C 155.275 460.374,157.525 460.374,158.900 460.296 C 160.275 460.218,159.150 460.154,156.400 460.154 C 153.650 460.154,152.525 460.218,153.900 460.296 M209.913 460.295 C 211.076 460.376,212.876 460.376,213.913 460.293 C 214.951 460.211,214.000 460.145,211.800 460.146 C 209.600 460.147,208.751 460.214,209.913 460.295 M174.300 460.693 C 175.235 460.777,176.765 460.777,177.700 460.693 C 178.635 460.609,177.870 460.540,176.000 460.540 C 174.130 460.540,173.365 460.609,174.300 460.693 M190.517 460.697 C 192.011 460.774,194.351 460.774,195.717 460.696 C 197.082 460.618,195.860 460.555,193.000 460.555 C 190.140 460.556,189.022 460.620,190.517 460.697 " stroke="none" fill="#ffffff" fill-rule="evenodd"></path></g></svg>